<svg version="1.1" id="Layer_1" xmlns="http://www.w3.org/2000/svg" xmlns:xlink="http://www.w3.org/1999/xlink" x="0px" y="0px"
	 width="100%" viewBox="0 0 1042 269" enable-background="new 0 0 1042 269" xml:space="preserve">
<path fill="#02060A" opacity="1.000000" stroke="none" 
	d="
M742.000000,0.999997 
	C842.230957,1.000000 942.461914,1.000000 1043.000000,1.000000 
	C1043.000000,43.353733 1043.000000,85.708206 1042.531982,128.531494 
	C1036.937012,129.041016 1031.810059,129.081726 1026.317871,128.989960 
	C1019.075073,128.947495 1012.197510,129.037506 1004.832214,129.095062 
	C978.314209,129.020248 952.283875,128.977875 925.773804,128.847687 
	C918.598694,128.869202 911.903320,128.978531 904.725464,129.064514 
	C891.777100,129.027466 879.311096,128.980026 866.845581,129.035339 
	C864.906128,129.043945 862.968811,129.521515 860.622070,129.776718 
	C836.477356,129.850922 812.741150,129.930618 788.689331,129.743530 
	C785.750916,129.317032 783.114014,128.910492 780.508545,129.058212 
	C777.014343,129.256287 775.961060,127.868889 775.923706,124.449226 
	C775.842834,117.034271 775.716919,109.579567 774.877563,102.224632 
	C774.064026,95.095413 772.334534,88.070732 771.004028,80.579742 
	C770.972717,79.327339 771.074585,78.466606 770.897827,77.667519 
	C765.774780,54.508148 758.240967,32.211636 747.095947,11.204688 
	C745.314575,7.847017 743.694580,4.403717 742.000000,0.999997 
z"/>
<path fill="#02060A" opacity="1.000000" stroke="none" 
	d="
M180.000000,1.000002 
	C199.020889,1.000000 218.041794,1.000000 237.467331,1.400140 
	C236.282532,8.743320 234.470947,15.644534 233.154114,22.638901 
	C231.013351,34.009579 229.319763,45.464203 227.201126,56.839378 
	C225.682709,64.991997 223.565231,73.034462 222.099884,81.195183 
	C220.257904,91.453461 218.767731,101.776070 217.206772,112.083191 
	C216.388245,117.488007 215.742767,122.919014 214.555313,128.425171 
	C205.144058,128.512131 196.196625,128.512131 186.634293,128.512131 
	C186.634293,135.371002 186.634293,141.598557 186.634293,148.388641 
	C179.780075,148.388641 173.543213,148.388641 167.036652,148.388641 
	C167.036652,169.937195 167.031799,190.894714 167.037979,211.852234 
	C167.044388,233.524719 179.377136,247.419006 200.996216,250.549057 
	C200.997971,257.315155 200.998978,263.657593 201.000000,270.000000 
	C166.312439,270.000000 131.624878,270.000000 96.468948,269.571198 
	C96.003242,268.811310 95.957634,268.471527 96.015511,268.150391 
	C98.461525,254.578430 100.907692,241.006454 103.390060,227.441116 
	C103.566650,226.476120 104.098610,225.580658 104.327751,224.620041 
	C106.229904,216.646103 108.099670,208.664429 110.372833,200.596405 
	C112.091110,200.367630 113.416145,200.231003 114.740372,200.086990 
	C134.306992,197.959412 148.465790,179.960052 146.228516,160.350525 
	C144.925797,148.932358 138.604889,140.772568 130.061462,133.565491 
	C135.377960,117.334641 140.553085,101.434219 145.928818,85.601906 
	C149.499908,75.084488 153.071014,64.550362 157.174408,54.235466 
	C160.708649,45.351273 165.128693,36.823799 168.913162,28.033585 
	C172.763992,19.089214 176.316742,10.016512 180.000000,1.000002 
z"/>
<path fill="#0B141A" opacity="1.000000" stroke="none" 
	d="
M400.000000,1.000000 
	C490.020905,1.000000 580.041809,1.000000 670.531555,1.402985 
	C672.133362,4.626284 673.266357,7.446599 674.125488,9.585199 
	C673.849182,12.132998 672.741577,16.132681 673.479248,16.508272 
	C680.525818,20.096159 678.646667,23.699459 674.097717,27.668360 
	C674.000793,27.752920 674.032227,27.984653 673.660156,28.276413 
	C672.350952,28.333784 671.385254,28.262482 670.074097,28.040344 
	C667.406372,27.665646 664.993896,26.924854 662.778320,27.311861 
	C655.201599,28.635324 649.465515,33.458668 643.426025,37.896057 
	C642.062744,35.828121 640.975586,33.959961 639.857422,32.110600 
	C636.622620,26.760778 635.457275,26.767313 632.225586,32.103195 
	C624.736877,44.467945 617.240540,56.828087 609.386902,69.067795 
	C606.631653,66.623337 604.236755,64.301193 601.716248,61.526176 
	C601.516113,55.453854 601.404419,49.834606 601.374451,44.214928 
	C601.299805,30.235353 601.314819,30.235273 598.680176,28.358288 
	C598.680176,38.251541 598.680176,47.638741 598.358398,56.964268 
	C596.779907,55.855370 595.506104,54.827930 594.269226,53.757816 
	C583.450073,44.397449 571.744751,36.598778 557.850342,32.506233 
	C566.989929,31.905010 575.960205,31.784611 584.927124,31.542044 
	C586.366882,31.503096 587.791870,30.918480 589.223694,30.586115 
	C589.125793,30.072382 589.027893,29.558649 588.930054,29.044916 
	C578.012695,29.044916 567.094971,29.012594 556.178833,29.126865 
	C555.538025,29.133574 554.909546,30.323326 553.845825,30.968197 
	C552.752075,30.935974 552.064575,30.996754 551.427063,30.845966 
	C527.664307,25.225077 504.621307,27.144674 482.356598,37.373501 
	C478.925201,38.949936 475.464935,40.463409 471.895630,41.586853 
	C471.945343,35.459000 471.776764,29.458881 464.916290,27.958130 
	C460.376434,26.965017 455.319122,27.040100 450.731873,27.903625 
	C445.507538,28.887074 443.904999,32.250324 444.321716,38.343315 
	C447.222046,38.340328 449.822052,39.526661 452.132965,35.579548 
	C453.229309,33.706940 457.901520,33.267979 460.877991,33.446095 
	C462.278351,33.529888 464.870270,37.014538 464.505066,38.234467 
	C463.832275,40.481812 461.601898,42.492844 459.585358,44.032158 
	C458.081970,45.179783 455.889801,45.420002 454.010071,46.080578 
	C443.809937,49.665134 441.049408,57.247181 446.171265,66.973877 
	C438.962036,75.550926 433.888763,84.928726 430.380096,95.189278 
	C429.806061,96.867966 428.819397,98.405571 427.634827,100.007385 
	C426.131042,100.253510 424.871246,100.247665 423.924347,100.789085 
	C418.033722,104.157349 412.234497,107.684944 406.364319,111.089584 
	C398.194336,115.828094 389.963013,120.461540 381.827362,125.257721 
	C380.682678,125.932541 379.930878,127.273842 378.534729,128.392563 
	C368.047150,128.428391 358.022034,128.378296 347.997620,127.839737 
	C347.693451,110.971085 349.668640,94.906746 354.306915,79.155556 
	C354.755981,77.630585 354.102448,74.635208 353.045502,74.087059 
	C351.544373,73.308525 349.042877,73.756088 347.239288,74.417458 
	C344.003296,75.604134 340.829865,77.112724 337.888550,78.909584 
	C334.896606,80.737350 332.182098,83.032097 329.421906,85.218071 
	C328.674255,85.810181 328.362885,87.024078 327.576996,87.486214 
	C318.650238,92.735718 311.620911,100.126900 304.568665,107.519928 
	C303.917023,108.203049 302.365112,108.767242 301.653870,108.447266 
	C300.931488,108.122292 300.211853,106.521553 300.394012,105.673485 
	C301.224731,101.806381 301.706451,97.647995 303.536652,94.253822 
	C308.376404,85.278519 313.376587,76.314919 319.199707,67.965118 
	C325.401306,59.072609 331.146149,49.512611 342.097961,45.054459 
	C344.508453,44.073223 346.054565,40.968575 348.323547,38.701401 
	C349.532288,37.519199 350.221863,35.948826 351.337982,35.538334 
	C354.248962,34.467743 357.373932,33.286098 360.357971,33.416977 
	C361.727020,33.477024 363.682892,36.352020 364.105621,38.234947 
	C364.857208,41.582577 362.400696,43.193073 359.381561,44.096798 
	C356.525665,44.951653 353.749878,46.073612 350.937561,47.074512 
	C345.344910,49.064934 343.653931,51.940636 343.823639,59.180004 
	C343.964478,65.187180 345.711578,68.139282 351.384888,69.211327 
	C355.492767,69.987564 359.978149,69.881073 364.107849,69.133423 
	C368.851562,68.274620 371.306030,64.837730 371.209564,59.728901 
	C371.080902,52.914120 370.932678,46.083344 371.255219,39.281361 
	C371.533844,33.406048 369.387695,29.414516 364.072937,26.925669 
	C368.442566,23.739731 372.656982,20.870941 376.952972,18.464424 
	C377.034515,35.981937 377.034515,53.037174 377.034515,70.045670 
	C379.726898,70.045670 381.659058,70.045670 384.176483,70.045670 
	C384.176483,51.192055 384.176483,32.597466 384.539246,13.989107 
	C391.983276,12.033934 396.460571,7.062603 400.000000,1.000000 
M417.330872,58.064995 
	C417.330872,47.787380 417.330872,37.509766 417.330872,27.123508 
	C414.840027,27.123508 412.781494,27.123508 410.457581,27.123508 
	C410.457581,37.404110 410.386444,47.368351 410.489105,57.330799 
	C410.536774,61.954750 408.367920,63.994450 403.868073,64.066467 
	C398.511475,64.152206 396.663605,62.610500 396.588776,57.037933 
	C396.455414,47.105824 396.551300,37.170631 396.551300,27.142727 
	C394.008118,27.142727 391.962372,27.142727 389.709137,27.142727 
	C389.709137,38.446049 389.583984,49.414627 389.762543,60.378262 
	C389.850403,65.772621 393.097565,69.067062 398.778931,69.877327 
	C401.390747,70.249825 404.100433,70.212341 406.743774,70.034294 
	C413.843933,69.556015 416.976654,66.191528 417.330872,58.064995 
M426.425995,29.891319 
	C425.417938,31.739599 423.581818,33.568218 423.537384,35.439377 
	C423.266205,46.861782 423.401825,58.293842 423.401825,69.866364 
	C425.835175,69.866364 427.874237,69.866364 430.194794,69.866364 
	C430.194794,59.592869 430.277344,49.636860 430.154846,39.683376 
	C430.104584,35.601921 431.908600,32.989288 435.860840,33.124516 
	C440.627411,33.287613 441.325989,30.897961 441.008514,25.783775 
	C436.071045,27.059166 431.545013,28.228277 426.425995,29.891319 
z"/>
<path fill="#030A0F" opacity="1.000000" stroke="none" 
	d="
M215.019135,128.338196 
	C215.742767,122.919014 216.388245,117.488007 217.206772,112.083191 
	C218.767731,101.776070 220.257904,91.453461 222.099884,81.195183 
	C223.565231,73.034462 225.682709,64.991997 227.201126,56.839378 
	C229.319763,45.464203 231.013351,34.009579 233.154114,22.638901 
	C234.470947,15.644534 236.282532,8.743320 237.935989,1.400140 
	C260.020905,1.000000 282.041779,1.000000 304.517670,1.393881 
	C302.668213,8.150706 300.563904,14.595285 298.009888,20.856421 
	C294.635681,29.128092 290.144745,37.018669 287.510956,45.500683 
	C283.438507,58.615753 280.424774,72.067146 277.219574,85.437645 
	C276.568665,88.152908 277.059662,91.141922 277.136169,94.259155 
	C277.499512,95.009430 277.750977,95.505280 277.648621,96.060524 
	C273.680420,98.536415 273.894897,100.499527 277.986938,102.335266 
	C277.656189,103.445694 277.329926,104.223801 276.627991,105.070740 
	C272.931335,108.000237 272.613922,110.947235 275.997742,114.450516 
	C275.995789,117.599045 275.993622,120.297699 275.627197,123.062454 
	C274.629547,124.913445 272.995453,127.237762 273.598358,128.356216 
	C274.492523,130.014999 276.951324,130.852631 278.782501,131.977280 
	C280.335907,132.931335 283.237518,133.736115 283.283356,134.712997 
	C283.417542,137.571228 282.423248,140.482422 281.594910,143.160828 
	C273.354492,132.727158 262.758453,128.382629 249.957581,128.515884 
	C238.313309,128.637100 226.665421,128.411133 215.019135,128.338196 
z"/>
<path fill="#080D10" opacity="1.000000" stroke="none" 
	d="
M1043.000000,175.000000 
	C1043.000000,206.588638 1043.000000,238.177292 1043.000000,270.000000 
	C1015.646240,270.000000 988.291748,270.000000 960.456726,269.619720 
	C958.440979,267.821747 957.119263,265.603607 955.333069,265.127258 
	C948.247681,263.237732 941.611694,260.973602 937.041443,254.648926 
	C935.310181,252.252899 932.969666,250.253632 930.710999,248.299988 
	C929.532349,247.280609 927.928406,246.753082 926.434998,245.541382 
	C926.289856,230.149323 926.226257,215.219254 926.606934,200.164978 
	C953.071716,200.040756 979.092285,200.040756 1005.712708,200.040756 
	C1005.712708,216.971664 1005.712708,233.199356 1005.712708,249.561508 
	C1012.875793,249.561508 1019.426514,249.561508 1026.129150,249.561508 
	C1026.129150,232.628845 1026.129150,216.059082 1026.129150,198.853546 
	C1019.650879,198.853546 1013.420532,198.853546 1006.785706,198.853546 
	C1006.785706,192.121857 1006.785706,186.015137 1007.267456,179.898682 
	C1013.843933,179.888931 1019.938599,179.888931 1026.269531,179.888931 
	C1026.504883,177.220016 1026.691162,175.108109 1027.319458,172.997147 
	C1032.840942,173.665405 1037.920532,174.332703 1043.000000,175.000000 
z"/>
<path fill="#06090C" opacity="1.000000" stroke="none" 
	d="
M179.531342,1.000002 
	C176.316742,10.016512 172.763992,19.089214 168.913162,28.033585 
	C165.128693,36.823799 160.708649,45.351273 157.174408,54.235466 
	C153.071014,64.550362 149.499908,75.084488 145.928818,85.601906 
	C140.553085,101.434219 135.377960,117.334641 129.716476,133.493866 
	C122.509796,129.851974 115.129982,128.474670 107.336845,128.504578 
	C95.549637,128.549835 83.761566,128.372086 72.027115,127.883530 
	C74.046783,121.701324 75.882858,115.876320 78.004906,110.157433 
	C83.586815,95.114273 88.917984,79.961121 95.080429,65.156219 
	C99.260178,55.114601 104.670578,45.584721 109.541847,35.831600 
	C113.980942,26.943773 118.493263,18.091827 122.846710,9.162345 
	C124.120300,6.550041 124.960930,3.726644 126.000000,1.000000 
	C143.687561,1.000000 161.375122,1.000000 179.531342,1.000002 
z"/>
<path fill="#050D13" opacity="1.000000" stroke="none" 
	d="
M281.871094,143.372864 
	C282.423248,140.482422 283.417542,137.571228 283.283356,134.712997 
	C283.237518,133.736115 280.335907,132.931335 278.782501,131.977280 
	C276.951324,130.852631 274.492523,130.014999 273.598358,128.356216 
	C272.995453,127.237762 274.629547,124.913445 275.630432,123.496346 
	C275.349609,128.129181 277.405212,129.144852 281.373352,129.075272 
	C293.433044,128.863831 305.499634,128.927246 317.561523,129.062836 
	C319.965057,129.089859 322.359619,129.910660 324.441620,130.567780 
	C321.145294,133.041702 317.688263,134.894363 315.266052,137.655014 
	C302.530212,152.170517 308.017029,173.651367 325.892792,180.605698 
	C327.088501,181.070877 328.258026,183.146790 328.371429,184.559280 
	C328.702484,188.683960 328.632568,192.858521 328.443878,197.000961 
	C328.320435,199.711060 329.231293,201.072235 332.013794,201.395294 
	C333.096130,205.027145 334.159851,208.268204 335.234283,211.505707 
	C336.817261,216.275482 338.407837,221.042740 339.660278,225.760681 
	C333.231110,222.975418 331.292297,217.866455 331.836304,211.534943 
	C324.038757,211.534943 316.788330,211.534943 309.332428,211.534943 
	C309.183685,212.957199 308.964264,214.080429 308.964020,215.203674 
	C308.959961,233.334167 324.954803,249.439514 343.512817,249.938599 
	C349.671661,250.104233 355.835693,250.077698 362.080780,250.462448 
	C365.193115,252.929520 367.974792,255.639114 371.304657,257.093750 
	C377.401031,259.756958 381.463989,264.029816 384.000000,270.000000 
	C345.979095,270.000000 307.958221,270.000000 269.468475,269.581238 
	C267.952148,263.266632 266.998291,257.351166 265.771729,251.492767 
	C265.548340,250.425827 264.211334,249.592056 263.697784,248.440964 
	C280.291870,241.734146 288.181885,230.065002 288.183899,212.469101 
	C288.185577,197.985184 287.908386,183.494110 288.283630,169.019928 
	C288.523926,159.750290 286.978271,151.181793 281.871094,143.372864 
z"/>
<path fill="#05090C" opacity="1.000000" stroke="none" 
	d="
M1.000000,254.000000 
	C1.000000,191.312439 1.000000,128.624878 1.340593,65.416122 
	C2.515396,64.153870 3.383981,63.447750 4.178480,62.666306 
	C11.869732,55.101475 16.471998,44.964897 25.688929,38.487568 
	C32.535698,33.675907 38.703568,27.950394 46.959202,25.627075 
	C49.188942,24.999575 51.647911,25.186598 53.999954,25.424286 
	C52.251690,36.285198 50.582310,46.735191 48.742908,57.155178 
	C44.587093,80.697403 44.014446,104.519905 42.568375,128.396484 
	C36.673553,128.480194 31.243217,128.480194 25.342098,128.480194 
	C25.342098,144.381393 25.316425,159.485062 25.371386,174.588440 
	C25.379114,176.712006 25.781330,178.834106 26.000626,181.386932 
	C24.974989,185.755997 24.102236,189.742752 22.888567,193.622879 
	C21.071396,199.432434 19.007454,205.164627 17.062048,210.934296 
	C15.495479,215.580383 13.962761,220.237900 12.390290,224.881958 
	C10.259726,231.174332 8.253005,237.514450 5.904331,243.724869 
	C4.566565,247.262238 2.653826,250.582153 1.000000,254.000000 
z"/>
<path fill="#0C1013" opacity="1.000000" stroke="none" 
	d="
M43.032860,128.312775 
	C44.014446,104.519905 44.587093,80.697403 48.742908,57.155178 
	C50.582310,46.735191 52.251690,36.285198 54.250900,25.152235 
	C56.335701,16.637098 58.167850,8.818549 60.000000,1.000000 
	C81.687561,1.000000 103.375122,1.000000 125.531342,1.000000 
	C124.960930,3.726644 124.120300,6.550041 122.846710,9.162345 
	C118.493263,18.091827 113.980942,26.943773 109.541847,35.831600 
	C104.670578,45.584721 99.260178,55.114601 95.080429,65.156219 
	C88.917984,79.961121 83.586815,95.114273 78.004906,110.157433 
	C75.882858,115.876320 74.046783,121.701324 71.567223,127.970871 
	C61.713673,128.413437 52.373264,128.363113 43.032860,128.312775 
z"/>
<path fill="#040A0E" opacity="1.000000" stroke="none" 
	d="
M926.516541,246.003387 
	C927.928406,246.753082 929.532349,247.280609 930.710999,248.299988 
	C932.969666,250.253632 935.310181,252.252899 937.041443,254.648926 
	C941.611694,260.973602 948.247681,263.237732 955.333069,265.127258 
	C957.119263,265.603607 958.440979,267.821747 959.988037,269.619720 
	C884.979126,270.000000 809.958191,270.000000 734.479126,269.632599 
	C735.357117,266.826050 736.740051,264.411133 738.018921,261.942261 
	C740.049377,258.022491 742.010193,254.066696 744.354248,250.033783 
	C745.195557,248.961884 745.683044,247.982346 746.502930,246.941605 
	C748.074585,245.620468 749.693237,244.561523 750.486023,243.065033 
	C753.570312,237.242859 756.152893,231.143341 759.444641,225.449081 
	C760.567688,223.506302 763.227783,222.452057 765.392090,221.297241 
	C769.748413,239.356705 782.908936,249.894821 801.036804,249.929977 
	C814.855042,249.956787 828.682617,249.624420 842.488831,250.032257 
	C853.852173,250.367966 864.634033,249.365677 874.291748,242.026474 
	C881.363220,243.618668 887.914612,246.006683 894.977966,243.918411 
	C898.228271,242.957474 901.663025,242.620041 905.100281,242.436462 
	C905.286682,245.131989 905.386902,247.390945 905.500061,249.942291 
	C911.525635,249.942291 917.013489,249.719421 922.471619,250.025864 
	C925.746826,250.209747 926.543762,248.725647 926.516541,246.003387 
z"/>
<path fill="#0B1014" opacity="1.000000" stroke="none" 
	d="
M384.468658,270.000000 
	C381.463989,264.029816 377.401031,259.756958 371.304657,257.093750 
	C367.974792,255.639114 365.193115,252.929520 362.545410,250.394943 
	C376.397766,249.991226 389.869019,250.013672 403.339966,249.955978 
	C417.541473,249.895157 428.451813,239.981674 429.805725,225.941254 
	C430.028442,223.631592 430.028046,221.300385 430.463501,219.037140 
	C432.085236,220.117325 433.459991,221.048874 434.650055,222.175522 
	C448.966034,235.728989 464.973907,246.835175 484.010437,252.272598 
	C496.527740,255.847931 509.618347,257.422363 522.460266,259.850220 
	C525.099426,260.349152 526.044617,258.971191 526.013916,256.453735 
	C525.948914,251.122391 526.001038,245.789642 526.002014,240.457474 
	C526.003540,231.799744 526.002502,231.799744 534.577026,230.447678 
	C534.666504,237.143936 534.666504,243.379059 534.666504,250.119781 
	C539.735779,250.119781 543.868774,250.119781 547.944824,250.454071 
	C547.009094,251.942108 546.101685,253.075333 545.256470,254.253128 
	C541.494690,259.495148 537.750549,264.749878 534.000000,270.000000 
	C484.312439,270.000000 434.624878,270.000000 384.468658,270.000000 
z"/>
<path fill="#10171C" opacity="1.000000" stroke="none" 
	d="
M376.871460,18.002151 
	C372.656982,20.870941 368.442566,23.739731 363.614197,26.917192 
	C359.682251,27.172619 356.322876,26.762178 353.054749,27.140289 
	C346.194489,27.933994 343.173279,32.233524 344.090424,38.946903 
	C337.189636,43.226749 330.686462,47.456783 324.011566,51.395786 
	C321.407135,52.932720 318.430054,53.849125 315.597748,54.985939 
	C312.606384,56.186577 309.386749,56.974396 306.642181,58.582928 
	C304.579590,59.791759 303.168152,62.074299 301.365875,63.771656 
	C296.219360,68.618523 291.100006,73.500542 285.783691,78.156021 
	C284.577972,79.211868 282.618591,79.407021 281.020538,79.594513 
	C285.762817,54.822239 294.390900,31.865105 305.983673,9.965584 
	C307.512421,7.077622 308.670319,3.993350 310.000000,1.000004 
	C339.687561,1.000000 369.375122,1.000000 399.531342,1.000000 
	C396.460571,7.062603 391.983276,12.033934 384.462799,13.571898 
	C381.964661,12.251466 379.905792,11.334472 377.302338,10.174943 
	C377.103760,13.782319 376.987610,15.892236 376.871460,18.002151 
z"/>
<path fill="#111518" opacity="1.000000" stroke="none" 
	d="
M674.003784,28.147739 
	C674.032227,27.984653 674.000793,27.752920 674.097717,27.668360 
	C678.646667,23.699459 680.525818,20.096159 673.479248,16.508272 
	C672.741577,16.132681 673.849182,12.132998 674.125488,9.585199 
	C673.266357,7.446599 672.133362,4.626284 671.000244,1.402985 
	C694.354248,1.000000 717.708435,1.000000 741.531372,0.999997 
	C743.694580,4.403717 745.314575,7.847017 747.095947,11.204688 
	C758.240967,32.211636 765.774780,54.508148 770.897827,77.667519 
	C771.074585,78.466606 770.972717,79.327339 770.620728,80.577980 
	C768.153809,79.635452 765.770813,78.565681 764.063416,76.830940 
	C762.364868,75.105225 761.561890,72.530891 759.989136,70.642815 
	C754.121094,63.598408 747.678467,56.990231 742.278870,49.612743 
	C738.584412,44.565067 734.218872,42.778519 728.391968,42.976665 
	C722.789124,43.167187 717.023682,43.844242 712.826538,38.654274 
	C712.349365,38.064190 710.973816,38.200542 709.827881,37.709042 
	C707.686279,31.834394 703.256836,29.372868 697.830505,28.983946 
	C689.908997,28.416191 681.947937,28.399395 674.003784,28.147739 
z"/>
<path fill="#060B0E" opacity="1.000000" stroke="none" 
	d="
M109.979218,200.685120 
	C108.099670,208.664429 106.229904,216.646103 104.327751,224.620041 
	C104.098610,225.580658 103.566650,226.476120 103.390060,227.441116 
	C100.907692,241.006454 98.461525,254.578430 96.015511,268.150391 
	C95.957634,268.471527 96.003242,268.811310 96.000290,269.571198 
	C85.645775,270.000000 75.291542,270.000000 64.410858,269.618896 
	C59.582912,251.384369 55.307133,233.524643 50.913467,215.693954 
	C50.660629,214.667847 49.447651,213.878311 48.592438,212.520996 
	C48.490360,209.580765 48.580078,207.092270 48.437588,204.617172 
	C48.270706,201.718414 49.313484,200.444183 52.395195,200.467087 
	C71.589348,200.609680 90.784439,200.626556 109.979218,200.685120 
z"/>
<path fill="#090E12" opacity="1.000000" stroke="none" 
	d="
M534.468628,270.000000 
	C537.750549,264.749878 541.494690,259.495148 545.256470,254.253128 
	C546.101685,253.075333 547.009094,251.942108 548.383545,250.383896 
	C550.989563,249.979416 553.099915,249.979416 555.978149,249.979416 
	C555.978149,241.568253 555.978149,233.785355 556.348206,225.949341 
	C582.145142,217.354721 601.825134,201.786636 614.903198,178.197983 
	C617.688477,173.174072 620.274719,168.039749 623.228882,162.968506 
	C623.872559,162.987625 624.239929,162.994568 624.695435,163.460236 
	C624.741943,168.950195 624.700317,173.981430 624.344116,179.119080 
	C618.340454,190.176041 612.716858,201.161285 606.947144,212.069229 
	C597.817749,229.328720 588.463074,246.442261 576.036865,261.673157 
	C574.139587,263.998657 573.318726,267.202423 572.000000,270.000000 
	C559.645752,270.000000 547.291565,270.000000 534.468628,270.000000 
z"/>
<path fill="#02060A" opacity="1.000000" stroke="none" 
	d="
M48.681515,212.978683 
	C49.447651,213.878311 50.660629,214.667847 50.913467,215.693954 
	C55.307133,233.524643 59.582912,251.384369 63.942200,269.618896 
	C43.118347,270.000000 22.236696,270.000000 1.000000,270.000000 
	C1.000000,264.986389 1.000000,259.964386 1.000000,254.471207 
	C2.653826,250.582153 4.566565,247.262238 5.904331,243.724869 
	C8.253005,237.514450 10.259726,231.174332 12.390290,224.881958 
	C13.962761,220.237900 15.495479,215.580383 17.062048,210.934296 
	C19.007454,205.164627 21.071396,199.432434 22.888567,193.622879 
	C24.102236,189.742752 24.974989,185.755997 26.468611,181.365204 
	C32.854259,180.913467 38.771606,180.913467 44.663628,180.913467 
	C44.663628,186.711472 44.663628,191.775894 44.663628,197.381226 
	C38.084667,197.381226 31.851791,197.381226 25.886513,197.381226 
	C25.886513,215.140564 25.886513,232.344330 25.886513,249.641159 
	C33.574718,249.641159 40.788246,249.641159 48.681515,249.641159 
	C48.681515,237.201248 48.681515,225.089966 48.681515,212.978683 
z"/>
<path fill="#05090C" opacity="1.000000" stroke="none" 
	d="
M699.000000,270.000000 
	C664.979126,270.000000 630.958191,270.000000 596.479248,269.628906 
	C596.286743,268.309814 596.360535,267.247711 596.846619,266.430908 
	C604.863220,252.959473 612.893005,239.495255 621.064331,226.117691 
	C621.699463,225.077789 623.408752,224.694000 624.702271,224.466949 
	C624.785645,233.164658 624.785645,241.400696 624.785645,250.120880 
	C650.450134,250.120880 675.223999,250.120880 699.998657,250.565735 
	C699.666260,257.340393 699.333130,263.670197 699.000000,270.000000 
z"/>
<path fill="#070C10" opacity="1.000000" stroke="none" 
	d="
M59.531342,1.000000 
	C58.167850,8.818549 56.335701,16.637098 54.252605,24.727697 
	C51.647911,25.186598 49.188942,24.999575 46.959202,25.627075 
	C38.703568,27.950394 32.535698,33.675907 25.688929,38.487568 
	C16.471998,44.964897 11.869732,55.101475 4.178480,62.666306 
	C3.383981,63.447750 2.515396,64.153870 1.340593,64.947464 
	C1.000000,43.742825 1.000000,22.485651 1.000000,1.000000 
	C20.353628,1.000000 39.708157,1.000000 59.531342,1.000000 
z"/>
<path fill="#070C10" opacity="1.000000" stroke="none" 
	d="
M624.618835,224.005295 
	C623.408752,224.694000 621.699463,225.077789 621.064331,226.117691 
	C612.893005,239.495255 604.863220,252.959473 596.846619,266.430908 
	C596.360535,267.247711 596.286743,268.309814 596.010620,269.628906 
	C588.312439,270.000000 580.624817,270.000000 572.468628,270.000000 
	C573.318726,267.202423 574.139587,263.998657 576.036865,261.673157 
	C588.463074,246.442261 597.817749,229.328720 606.947144,212.069229 
	C612.716858,201.161285 618.340454,190.176041 624.683594,179.402115 
	C631.876404,179.750107 638.415344,179.921463 644.942993,180.555298 
	C644.931824,186.787384 644.931824,192.557007 644.931824,198.966492 
	C637.928162,198.966492 631.545532,198.966492 624.618835,198.966492 
	C624.618835,207.744995 624.618835,215.875153 624.618835,224.005295 
z"/>
<path fill="#030A0F" opacity="1.000000" stroke="none" 
	d="
M263.388397,248.650635 
	C264.211334,249.592056 265.548340,250.425827 265.771729,251.492767 
	C266.998291,257.351166 267.952148,263.266632 268.999817,269.581238 
	C246.645767,270.000000 224.291550,270.000000 201.468658,270.000000 
	C200.998978,263.657593 200.997971,257.315155 201.460999,250.481598 
	C209.042297,249.978348 216.162949,250.102081 223.276077,249.924942 
	C236.649139,249.591904 250.017868,249.085144 263.388397,248.650635 
z"/>
<path fill="#060B0E" opacity="1.000000" stroke="none" 
	d="
M699.468628,270.000000 
	C699.333130,263.670197 699.666260,257.340393 700.462280,250.490967 
	C715.283630,250.022949 729.642090,250.074539 744.000488,250.126129 
	C742.010193,254.066696 740.049377,258.022491 738.018921,261.942261 
	C736.740051,264.411133 735.357117,266.826050 734.010437,269.632599 
	C722.645752,270.000000 711.291565,270.000000 699.468628,270.000000 
z"/>
<path fill="#0C1013" opacity="1.000000" stroke="none" 
	d="
M1043.000000,174.531342 
	C1037.920532,174.332703 1032.840942,173.665405 1027.230225,172.535583 
	C1026.693726,157.756195 1026.688354,143.439301 1026.683105,129.122421 
	C1031.810059,129.081726 1036.937012,129.041016 1042.531982,129.000153 
	C1043.000000,144.020889 1043.000000,159.041794 1043.000000,174.531342 
z"/>
<path fill="#050D13" opacity="1.000000" stroke="none" 
	d="
M309.583374,1.000004 
	C308.670319,3.993350 307.512421,7.077622 305.983673,9.965584 
	C294.390900,31.865105 285.762817,54.822239 281.015137,80.012375 
	C279.671600,85.224297 278.347931,89.614510 277.024231,94.004730 
	C277.059662,91.141922 276.568665,88.152908 277.219574,85.437645 
	C280.424774,72.067146 283.438507,58.615753 287.510956,45.500683 
	C290.144745,37.018669 294.635681,29.128092 298.009888,20.856421 
	C300.563904,14.595285 302.668213,8.150706 304.986328,1.393881 
	C306.388885,1.000000 307.777802,1.000000 309.583374,1.000004 
z"/>
<path fill="#0E1115" opacity="1.000000" stroke="none" 
	d="
M710.014832,38.000069 
	C710.973816,38.200542 712.349365,38.064190 712.826538,38.654274 
	C717.023682,43.844242 722.789124,43.167187 728.391968,42.976665 
	C734.218872,42.778519 738.584412,44.565067 742.278870,49.612743 
	C747.678467,56.990231 754.121094,63.598408 759.989136,70.642815 
	C761.561890,72.530891 762.364868,75.105225 764.063416,76.830940 
	C765.770813,78.565681 768.153809,79.635452 770.624023,80.998383 
	C772.334534,88.070732 774.064026,95.095413 774.877563,102.224632 
	C775.716919,109.579567 775.842834,117.034271 775.923706,124.449226 
	C775.961060,127.868889 777.014343,129.256287 780.508545,129.058212 
	C783.114014,128.910492 785.750916,129.317032 788.437378,129.983459 
	C773.128540,136.757660 765.101746,148.588608 765.000732,165.112823 
	C764.952026,173.076294 764.889282,181.039658 764.508057,188.915283 
	C763.257324,187.489380 762.013733,186.271027 761.456665,184.793808 
	C757.675171,174.765137 754.106567,164.656067 750.313171,154.632019 
	C749.188171,151.659241 747.562195,148.876053 746.098694,145.541626 
	C746.031677,139.733887 746.031677,134.390533 746.031677,129.073792 
	C743.212952,128.808075 741.107971,128.609619 738.978516,128.076569 
	C734.139893,117.171616 729.406677,106.562675 724.411499,96.078560 
	C723.767883,94.727699 721.757263,93.161484 720.394348,93.174797 
	C715.351990,93.223999 710.271179,93.623489 705.295471,94.442177 
	C702.744690,94.861893 701.524780,94.496780 700.979980,91.971657 
	C700.349548,89.049683 699.673340,86.130928 698.849976,83.258667 
	C697.231323,77.612160 694.019470,76.054474 688.879150,78.620033 
	C686.042358,80.035896 683.820312,80.271416 681.214722,77.938988 
	C677.810791,74.891899 674.449219,75.912689 670.849609,78.452637 
	C668.323669,80.235039 664.979065,80.857262 661.857544,81.679329 
	C662.019531,79.712181 661.788147,77.594551 662.737244,76.509422 
	C664.882812,74.056328 667.611145,72.112976 670.539917,69.985321 
	C671.650452,69.528275 672.823303,69.119659 672.904053,68.554871 
	C673.160706,66.759911 673.016235,64.906761 673.016602,63.076099 
	C673.018494,52.646347 673.017517,42.216595 673.017517,31.809851 
	C681.604492,31.809851 689.584534,31.401026 697.500122,31.939575 
	C703.800720,32.368240 706.835449,36.048378 706.899048,41.496273 
	C706.963379,47.010311 704.144470,50.379066 697.830200,51.458099 
	C694.256958,52.068710 690.541565,51.809444 686.902039,52.093693 
	C685.905334,52.171532 684.951477,52.797283 682.802856,53.623409 
	C697.656555,57.315025 711.576294,53.299458 710.014832,38.000069 
z"/>
<path fill="#208DC2" opacity="1.000000" stroke="none" 
	d="
M764.832886,189.003067 
	C764.889282,181.039658 764.952026,173.076294 765.000732,165.112823 
	C765.101746,148.588608 773.128540,136.757660 788.752930,130.250244 
	C812.741150,129.930618 836.477356,129.850922 860.952576,129.929352 
	C873.859131,134.413406 881.680786,142.850510 885.477051,155.614380 
	C885.792053,160.477463 886.039246,164.885849 886.293823,169.426468 
	C878.836060,169.426468 872.148438,169.426468 865.096191,169.426468 
	C865.096191,167.018631 865.179077,165.030701 865.081604,163.051620 
	C864.693665,155.172592 859.021973,148.883408 851.232483,148.759933 
	C833.773865,148.483200 816.304871,148.475021 798.846436,148.755768 
	C791.056702,148.881042 785.163208,155.241608 785.019958,163.071686 
	C784.855835,172.044983 785.072876,181.025269 785.053223,190.466278 
	C784.969299,197.754379 784.938171,204.578735 784.947510,211.403030 
	C784.963501,223.018326 790.789795,228.880890 802.437988,228.914169 
	C816.752747,228.955078 831.090698,228.421127 845.375610,229.074554 
	C858.110107,229.657028 866.383118,222.512680 865.309631,210.223267 
	C865.286865,209.962524 865.606445,209.671890 865.807983,209.323151 
	C872.489197,209.323151 879.194519,209.323151 885.893005,209.323151 
	C887.325256,222.489105 883.366333,233.249435 873.896667,241.959732 
	C864.634033,249.365677 853.852173,250.367966 842.488831,250.032257 
	C828.682617,249.624420 814.855042,249.956787 801.036804,249.929977 
	C782.908936,249.894821 769.748413,239.356705 765.424255,220.829529 
	C765.110901,209.705307 764.971863,199.354187 764.832886,189.003067 
z"/>
<path fill="#0E1115" opacity="1.000000" stroke="none" 
	d="
M926.253601,128.935501 
	C952.283875,128.977875 978.314209,129.020248 1004.851562,129.554276 
	C1005.359985,136.204819 1005.420044,142.364395 1005.349304,148.522476 
	C1005.232971,158.657364 1005.032043,168.791275 1004.408447,178.893753 
	C990.984436,178.856262 978.018555,178.890656 965.053101,178.833740 
	C952.095825,178.776855 939.138977,178.628601 926.221802,178.083344 
	C926.258972,161.409363 926.256287,145.172424 926.253601,128.935501 
z"/>
<path fill="#1E87BA" opacity="1.000000" stroke="none" 
	d="
M1004.866699,178.925598 
	C1005.032043,168.791275 1005.232971,158.657364 1005.349304,148.522476 
	C1005.420044,142.364395 1005.359985,136.204819 1005.339294,129.586700 
	C1012.197510,129.037506 1019.075073,128.947495 1026.317871,128.989960 
	C1026.688354,143.439301 1026.693726,157.756195 1026.788208,172.534637 
	C1026.691162,175.108109 1026.504883,177.220016 1026.269531,179.888931 
	C1019.938599,179.888931 1013.843933,179.888931 1007.022644,179.786026 
	C1005.819580,179.430618 1005.343140,179.178116 1004.866699,178.925598 
z"/>
<path fill="#1F8BBF" opacity="1.000000" stroke="none" 
	d="
M925.773804,128.847687 
	C926.256287,145.172424 926.258972,161.409363 926.106812,178.355682 
	C925.698486,179.361130 925.445129,179.657181 924.710327,179.919449 
	C918.108887,179.885651 911.988892,179.885651 905.028076,179.885651 
	C905.028076,171.219025 905.028076,163.108948 905.115601,154.536957 
	C905.204773,145.746002 905.206421,137.416931 905.208008,129.087875 
	C911.903320,128.978531 918.598694,128.869202 925.773804,128.847687 
z"/>
<path fill="#0E1115" opacity="1.000000" stroke="none" 
	d="
M904.725464,129.064514 
	C905.206421,137.416931 905.204773,145.746002 904.645020,154.537231 
	C897.861023,155.052826 891.635132,155.106262 885.409241,155.159698 
	C881.680786,142.850510 873.859131,134.413406 861.361023,129.934845 
	C862.968811,129.521515 864.906128,129.043945 866.845581,129.035339 
	C879.311096,128.980026 891.777100,129.027466 904.725464,129.064514 
z"/>
<path fill="#1E83B4" opacity="1.000000" stroke="none" 
	d="
M48.592438,212.520996 
	C48.681515,225.089966 48.681515,237.201248 48.681515,249.641159 
	C40.788246,249.641159 33.574718,249.641159 25.886513,249.641159 
	C25.886513,232.344330 25.886513,215.140564 25.886513,197.381226 
	C31.851791,197.381226 38.084667,197.381226 44.663628,197.381226 
	C44.663628,191.775894 44.663628,186.711472 44.663628,180.913467 
	C38.771606,180.913467 32.854259,180.913467 26.468929,180.935181 
	C25.781330,178.834106 25.379114,176.712006 25.371386,174.588440 
	C25.316425,159.485062 25.342098,144.381393 25.342098,128.480194 
	C31.243217,128.480194 36.673553,128.480194 42.568375,128.396484 
	C52.373264,128.363113 61.713673,128.413437 71.513969,128.376434 
	C83.761566,128.372086 95.549637,128.549835 107.336845,128.504578 
	C115.129982,128.474670 122.509796,129.851974 129.660400,133.853241 
	C138.604889,140.772568 144.925797,148.932358 146.228516,160.350525 
	C148.465790,179.960052 134.306992,197.959412 114.740372,200.086990 
	C113.416145,200.231003 112.091110,200.367630 110.372833,200.596405 
	C90.784439,200.626556 71.589348,200.609680 52.395195,200.467087 
	C49.313484,200.444183 48.270706,201.718414 48.437588,204.617172 
	C48.580078,207.092270 48.490360,209.580765 48.592438,212.520996 
M42.070843,132.016937 
	C37.811974,132.016937 33.553104,132.016937 29.252903,132.016937 
	C29.252903,147.512711 29.252903,162.371490 29.252903,177.408936 
	C34.660686,177.408936 39.704472,177.408936 45.233486,177.408936 
	C45.233486,167.382462 45.233486,157.755005 46.138699,148.120987 
	C57.427631,148.050903 68.716568,147.980804 80.932808,148.053284 
	C90.231720,148.071823 99.563568,147.636566 108.815086,148.308105 
	C113.175224,148.624588 118.098648,150.135651 121.494652,152.754898 
	C127.076637,157.060104 128.307602,163.545013 125.893127,170.338821 
	C123.645294,176.663712 117.477684,180.749664 109.866425,180.863937 
	C98.580070,181.033401 87.291008,181.023087 75.076057,180.935287 
	C66.333298,180.935287 57.590534,180.935287 48.839428,180.935287 
	C48.839428,186.725143 48.839428,191.646759 48.839428,196.984283 
	C57.114994,196.984283 65.058006,196.984283 73.927353,197.140900 
	C87.246880,197.105774 100.591400,197.571518 113.879570,196.908157 
	C130.318253,196.087555 143.498825,180.556381 143.109528,163.549286 
	C142.722488,146.640335 129.095459,132.478409 112.470543,132.063644 
	C102.989044,131.827118 93.494751,132.103470 83.076988,132.009369 
	C69.715767,132.057602 56.354549,132.105820 42.070843,132.016937 
M92.499954,151.646255 
	C79.359657,151.659271 66.218407,151.762329 53.079720,151.623596 
	C49.689083,151.587799 48.291393,152.543625 48.436264,156.117172 
	C48.671883,161.929276 48.643372,167.762894 48.443127,173.577667 
	C48.330173,176.857620 49.509689,177.903000 52.759682,177.848892 
	C62.570511,177.685623 72.385979,177.805603 82.199638,177.806366 
	C91.514259,177.807098 100.833649,177.978729 110.142044,177.735306 
	C117.985901,177.530197 123.517220,171.805405 123.535439,164.467361 
	C123.553955,157.009674 118.157578,151.845200 109.966393,151.668655 
	C104.479935,151.550385 98.988876,151.645874 92.499954,151.646255 
M45.026348,213.508789 
	C45.026348,209.271637 45.026348,205.034500 45.026348,200.844849 
	C39.215046,200.844849 34.307476,200.844849 29.260662,200.844849 
	C29.260662,216.275543 29.260662,231.323303 29.260662,246.385956 
	C34.678051,246.385956 39.721210,246.385956 45.026455,246.385956 
	C45.026455,235.481201 45.026455,224.994125 45.026348,213.508789 
z"/>
<path fill="#1E87BA" opacity="1.000000" stroke="none" 
	d="
M263.697784,248.440964 
	C250.017868,249.085144 236.649139,249.591904 223.276077,249.924942 
	C216.162949,250.102081 209.042297,249.978348 201.460266,250.057892 
	C179.377136,247.419006 167.044388,233.524719 167.037979,211.852234 
	C167.031799,190.894714 167.036652,169.937195 167.036652,148.388641 
	C173.543213,148.388641 179.780075,148.388641 186.634293,148.388641 
	C186.634293,141.598557 186.634293,135.371002 186.634293,128.512131 
	C196.196625,128.512131 205.144058,128.512131 214.555313,128.425171 
	C226.665421,128.411133 238.313309,128.637100 249.957581,128.515884 
	C262.758453,128.382629 273.354492,132.727158 281.594910,143.160828 
	C286.978271,151.181793 288.523926,159.750290 288.283630,169.019928 
	C287.908386,183.494110 288.185577,197.985184 288.183899,212.469101 
	C288.181885,230.065002 280.291870,241.734146 263.697784,248.440964 
M260.184448,132.879852 
	C257.719757,132.578003 255.256073,132.023865 252.790237,132.014236 
	C233.167358,131.937531 213.544083,131.956375 193.920959,131.977432 
	C192.671158,131.978760 191.421661,132.243286 190.293121,132.371597 
	C190.293121,137.747330 190.293121,142.680725 190.293121,148.124527 
	C192.339172,148.124527 194.122009,148.124893 195.904861,148.124481 
	C213.199844,148.120499 230.496170,147.999466 247.788818,148.198425 
	C251.865585,148.245331 255.929932,149.369965 260.436615,150.509064 
	C266.451843,154.589890 268.916077,160.285782 268.826782,167.512650 
	C268.648315,181.956070 268.654144,196.404770 268.834137,210.848160 
	C268.903870,216.442307 267.508942,221.309692 263.236664,225.905670 
	C259.104553,227.330963 255.008301,229.848511 250.833862,229.985596 
	C235.688828,230.482941 220.517532,230.204300 205.356232,230.175583 
	C193.386688,230.152908 186.860458,223.660355 186.830933,211.661331 
	C186.786667,193.667770 186.829544,175.673981 186.835220,157.680298 
	C186.835785,155.889374 186.835281,154.098434 186.835281,151.587463 
	C182.356140,151.587463 178.407043,151.763062 174.481583,151.533691 
	C171.148132,151.338913 170.214005,152.648407 170.233139,155.866241 
	C170.349976,175.525330 170.122299,195.187393 170.345657,214.844650 
	C170.531509,231.201523 181.960358,245.024292 198.293594,245.989426 
	C218.188721,247.165024 238.213684,246.302689 258.177216,245.987152 
	C261.135834,245.940399 264.065430,244.056473 267.694916,242.908035 
	C278.399475,237.179642 284.575958,228.212509 284.879791,216.143784 
	C285.332031,198.180954 285.237061,180.193832 284.912567,162.225403 
	C284.665924,148.568665 274.388977,136.517227 260.184448,132.879852 
M227.084320,151.686813 
	C214.857346,151.686813 202.630386,151.686813 190.062149,151.686813 
	C190.062149,173.170670 189.900833,193.936462 190.155838,214.697159 
	C190.237320,221.330353 196.287155,226.776062 203.050995,226.909927 
	C211.693588,227.080978 220.343781,226.867599 229.921265,226.950363 
	C237.231720,226.959946 244.543686,227.066254 251.852203,226.952026 
	C259.236053,226.836624 265.087280,221.612579 265.212616,214.247360 
	C265.495239,197.638596 265.491669,181.019058 265.233490,164.409683 
	C265.121185,157.185638 259.653870,151.933105 252.410248,151.726227 
	C244.284760,151.494186 236.144089,151.793442 227.084320,151.686813 
z"/>
<path fill="#010204" opacity="1.000000" stroke="none" 
	d="
M622.952637,162.956329 
	C620.274719,168.039749 617.688477,173.174072 614.903198,178.197983 
	C601.825134,201.786636 582.145142,217.354721 556.257446,225.487793 
	C555.796692,200.176010 555.796692,175.272659 555.796692,149.739380 
	C572.706177,149.739380 589.068298,149.739380 605.632812,149.739380 
	C605.632812,142.498947 605.632812,135.892075 605.632812,129.013443 
	C588.630554,129.013443 571.783325,129.013443 554.470215,129.013443 
	C554.470215,135.663788 554.470215,141.935562 554.470215,148.916748 
	C548.068359,148.916748 542.122192,148.916748 536.046387,148.468994 
	C535.916748,141.745087 535.916748,135.468933 535.916748,128.909378 
	C518.453491,128.909378 501.726624,128.909378 484.740143,128.909378 
	C484.740143,135.924927 484.740143,142.647949 484.740143,149.855164 
	C487.190216,149.855164 489.316284,149.837112 491.441956,149.858093 
	C505.913757,150.000900 520.385498,150.151917 534.801636,150.747345 
	C534.736450,153.854507 534.726074,156.514618 534.717407,159.174744 
	C534.640625,182.778671 534.564087,206.382614 534.487488,229.986542 
	C526.002502,231.799744 526.003540,231.799744 526.002014,240.457474 
	C526.001038,245.789642 525.948914,251.122391 526.013916,256.453735 
	C526.044617,258.971191 525.099426,260.349152 522.460266,259.850220 
	C509.618347,257.422363 496.527740,255.847931 484.010437,252.272598 
	C464.973907,246.835175 448.966034,235.728989 434.650055,222.175522 
	C433.459991,221.048874 432.085236,220.117325 430.373779,218.641357 
	C429.122864,208.391388 423.620331,202.087692 414.931152,197.783081 
	C413.368561,195.270828 411.844147,193.111984 410.249695,190.495483 
	C410.179688,186.041245 410.179688,182.044693 410.179688,178.060455 
	C407.957062,177.858154 406.505371,177.726013 404.969482,177.252518 
	C403.397491,172.534805 401.640350,168.226730 400.508118,163.760239 
	C399.621277,160.261581 399.508362,156.566742 399.390869,153.025040 
	C405.145050,155.994736 407.126923,160.815933 407.055023,166.695282 
	C414.679321,166.695282 422.050629,166.695282 429.352234,166.695282 
	C431.469696,151.864639 422.097382,137.783691 405.917084,130.187439 
	C409.824066,129.564178 413.415527,129.104233 417.014526,129.034149 
	C423.856079,128.900864 423.834625,128.992645 424.060760,122.359680 
	C424.093933,121.386101 424.510040,120.431282 424.679443,119.455719 
	C425.804657,112.975113 426.911011,106.491211 428.023468,100.008385 
	C428.819397,98.405571 429.806061,96.867966 430.380096,95.189278 
	C433.888763,84.928726 438.962036,75.550926 446.477295,67.132874 
	C452.222900,70.938354 458.053070,70.722389 463.808044,69.445282 
	C469.335327,68.218697 471.497559,65.194473 471.691162,59.466202 
	C471.887787,53.649101 471.916016,47.826305 472.018005,42.006004 
	C475.464935,40.463409 478.925201,38.949936 482.356598,37.373501 
	C504.621307,27.144674 527.664307,25.225077 551.427063,30.845966 
	C552.064575,30.996754 552.752075,30.935974 553.984375,31.384583 
	C554.700439,44.579838 554.848328,57.364368 554.996216,70.148895 
	C555.890747,70.143127 556.785278,70.137360 557.679810,70.131592 
	C557.679810,57.736580 557.679810,45.341564 557.679810,32.946552 
	C571.744751,36.598778 583.450073,44.397449 594.269226,53.757816 
	C595.506104,54.827930 596.779907,55.855370 598.439575,57.421944 
	C598.842468,62.039993 598.842468,66.138695 598.842468,70.237396 
	C599.566406,70.243431 600.290344,70.249466 601.014221,70.255501 
	C601.290161,67.496689 601.566040,64.737877 601.841919,61.979057 
	C604.236755,64.301193 606.631653,66.623337 609.431885,69.223770 
	C609.964539,69.800217 610.088379,70.099503 610.170166,70.766678 
	C611.081909,72.424988 612.032471,73.716530 613.035828,75.365540 
	C614.060425,77.817108 614.942810,79.958412 616.018494,81.997726 
	C623.694092,96.548920 627.359985,112.123070 627.541077,128.577301 
	C626.339783,130.003571 624.971619,131.316360 624.926086,132.673569 
	C624.643005,141.101639 624.656738,149.539673 624.250916,158.105576 
	C623.604065,159.809937 623.278381,161.383133 622.952637,162.956329 
M513.980591,43.924255 
	C513.856506,42.927921 513.732422,41.931587 513.608337,40.935253 
	C513.281311,40.937504 512.954224,40.939758 512.627197,40.942009 
	C512.401855,42.893925 512.176514,44.845837 511.960510,46.717033 
	C509.847412,46.941837 508.051453,47.132904 506.255493,47.323971 
	C506.261566,47.628967 506.267639,47.933968 506.273712,48.238964 
	C508.237640,48.559467 510.201569,48.879967 512.044250,49.180683 
	C512.270508,51.284645 512.461365,53.059814 512.652161,54.834984 
	C513.015076,54.794743 513.377991,54.754501 513.740906,54.714264 
	C513.897949,52.807304 514.055054,50.900345 514.210571,49.011810 
	C516.343384,48.753853 518.268433,48.521023 519.982483,48.313705 
	C517.769348,46.990299 515.875488,45.857784 513.980591,43.924255 
M575.364624,48.886055 
	C572.263916,48.886055 569.163269,48.886055 566.062561,48.886055 
	C568.914795,53.631977 573.271545,51.293369 576.938416,51.795818 
	C578.272400,51.978607 579.755554,51.072750 581.170654,50.663589 
	C581.015198,50.162090 580.859741,49.660595 580.704285,49.159096 
	C579.238159,49.068909 577.771973,48.978718 575.364624,48.886055 
z"/>
<path fill="#0D151B" opacity="1.000000" stroke="none" 
	d="
M277.136169,94.259155 
	C278.347931,89.614510 279.671600,85.224297 281.000702,80.416214 
	C282.618591,79.407021 284.577972,79.211868 285.783691,78.156021 
	C291.100006,73.500542 296.219360,68.618523 301.365875,63.771656 
	C303.168152,62.074299 304.579590,59.791759 306.642181,58.582928 
	C309.386749,56.974396 312.606384,56.186577 315.597748,54.985939 
	C318.430054,53.849125 321.407135,52.932720 324.011566,51.395786 
	C330.686462,47.456783 337.189636,43.226749 344.440063,38.836411 
	C346.078674,38.653744 347.038696,38.747746 347.998718,38.841747 
	C346.054565,40.968575 344.508453,44.073223 342.097961,45.054459 
	C331.146149,49.512611 325.401306,59.072609 319.199707,67.965118 
	C313.376587,76.314919 308.376404,85.278519 303.536652,94.253822 
	C301.706451,97.647995 301.224731,101.806381 300.394012,105.673485 
	C300.211853,106.521553 300.931488,108.122292 301.653870,108.447266 
	C302.365112,108.767242 303.917023,108.203049 304.568665,107.519928 
	C311.620911,100.126900 318.650238,92.735718 327.576996,87.486214 
	C328.362885,87.024078 328.674255,85.810181 329.421906,85.218071 
	C332.182098,83.032097 334.896606,80.737350 337.888550,78.909584 
	C340.829865,77.112724 344.003296,75.604134 347.239288,74.417458 
	C349.042877,73.756088 351.544373,73.308525 353.045502,74.087059 
	C354.102448,74.635208 354.755981,77.630585 354.306915,79.155556 
	C349.668640,94.906746 347.693451,110.971085 347.536011,127.911331 
	C339.635254,129.102737 332.196777,129.734085 324.758331,130.365448 
	C322.359619,129.910660 319.965057,129.089859 317.561523,129.062836 
	C305.499634,128.927246 293.433044,128.863831 281.373352,129.075272 
	C277.405212,129.144852 275.349609,128.129181 275.994690,123.430237 
	C275.993622,120.297699 275.995789,117.599045 276.161072,114.082047 
	C276.550690,110.509766 276.777161,107.755836 277.003662,105.001907 
	C277.329926,104.223801 277.656189,103.445694 277.989441,101.906540 
	C277.998474,99.430710 278.000458,97.715912 278.002441,96.001129 
	C277.750977,95.505280 277.499512,95.009430 277.136169,94.259155 
z"/>
<path fill="#1E86B7" opacity="1.000000" stroke="none" 
	d="
M324.441620,130.567780 
	C332.196777,129.734085 339.635254,129.102737 347.535309,128.399796 
	C358.022034,128.378296 368.047150,128.428391 378.996887,128.472137 
	C387.636292,128.901230 395.351135,129.336670 403.286194,129.849976 
	C403.506439,129.927841 403.973328,129.911835 404.231323,130.050049 
	C404.861206,130.301117 405.233093,130.413956 405.604950,130.526794 
	C422.097382,137.783691 431.469696,151.864639 429.352234,166.695282 
	C422.050629,166.695282 414.679321,166.695282 407.055023,166.695282 
	C407.126923,160.815933 405.145050,155.994736 399.078735,152.736298 
	C396.623108,152.136093 394.819550,151.682266 393.014709,151.677216 
	C373.880402,151.623672 354.745880,151.634064 335.611450,151.658752 
	C334.510681,151.660172 333.410248,151.938110 332.315369,152.086594 
	C332.315369,160.781784 332.315369,169.135330 332.315369,177.593872 
	C356.856567,177.593872 380.955109,177.593872 405.053650,177.593872 
	C406.505371,177.726013 407.957062,177.858154 410.179688,178.060455 
	C410.179688,182.044693 410.179688,186.041245 410.164185,190.922791 
	C409.721100,195.467010 409.749329,198.779068 414.969330,198.136475 
	C423.620331,202.087692 429.122864,208.391388 430.041016,218.583344 
	C430.028046,221.300385 430.028442,223.631592 429.805725,225.941254 
	C428.451813,239.981674 417.541473,249.895157 403.339966,249.955978 
	C389.869019,250.013672 376.397766,249.991226 362.461975,250.071518 
	C355.835693,250.077698 349.671661,250.104233 343.512817,249.938599 
	C324.954803,249.439514 308.959961,233.334167 308.964020,215.203674 
	C308.964264,214.080429 309.183685,212.957199 309.332428,211.534943 
	C316.788330,211.534943 324.038757,211.534943 331.836304,211.534943 
	C331.292297,217.866455 333.231110,222.975418 340.036072,225.960327 
	C342.872528,226.462479 344.997681,226.926102 347.124329,226.933289 
	C364.591064,226.992279 382.058105,226.966385 399.525055,226.966263 
	C401.805115,226.966248 404.085175,226.966263 406.562683,226.966263 
	C406.562683,218.037979 406.562683,209.662872 406.562683,201.317841 
	C405.780548,201.103668 405.312317,200.862808 404.844452,200.863464 
	C380.562958,200.897003 356.281464,200.951035 332.000000,201.002899 
	C329.231293,201.072235 328.320435,199.711060 328.443878,197.000961 
	C328.632568,192.858521 328.702484,188.683960 328.371429,184.559280 
	C328.258026,183.146790 327.088501,181.070877 325.892792,180.605698 
	C308.017029,173.651367 302.530212,152.170517 315.266052,137.655014 
	C317.688263,134.894363 321.145294,133.041702 324.441620,130.567780 
M395.092377,132.034515 
	C384.729980,132.071198 374.367554,132.107880 363.076294,132.005188 
	C354.583008,131.988052 346.054413,132.459839 337.603973,131.849472 
	C321.282288,130.670578 308.082947,144.175690 312.916046,164.516235 
	C314.733582,172.165634 321.465302,177.238037 328.926636,176.565842 
	C328.926636,167.263687 328.926636,157.879517 328.926636,147.916748 
	C340.413879,147.916748 351.208679,147.916748 362.931396,148.057709 
	C374.250458,148.123108 385.569519,148.188522 397.443176,148.670792 
	C405.238007,150.733810 409.013824,156.350006 410.353302,163.636353 
	C415.860077,163.636353 420.939880,163.636353 425.995270,163.636353 
	C426.501495,147.320267 412.552338,132.839569 395.092377,132.034515 
M345.154388,230.260559 
	C336.229858,229.603058 331.839355,226.061234 328.913300,217.420624 
	C328.571503,216.411255 327.419739,214.989929 326.583527,214.947739 
	C321.849457,214.708908 317.097107,214.832230 312.211792,214.832230 
	C312.667480,223.167221 315.443878,229.641846 320.416321,235.430573 
	C329.731110,246.274399 341.976746,247.485596 355.909271,246.764969 
	C371.379944,246.784317 386.850677,246.826172 402.321320,246.813690 
	C410.250702,246.807297 417.013611,244.127228 421.868408,237.629929 
	C427.926483,229.522263 427.662018,220.414368 424.765106,211.485718 
	C422.684937,205.074371 416.098175,201.251526 409.840149,201.701965 
	C409.840149,211.054565 409.840149,220.454208 409.840149,230.172379 
	C407.157135,230.172379 405.013123,230.164841 402.869202,230.173584 
	C383.910461,230.250992 364.951721,230.331268 345.154388,230.260559 
M406.909515,189.445099 
	C406.909515,186.689728 406.909515,183.934357 406.909515,181.182983 
	C381.546387,181.182983 356.980957,181.182983 332.197021,181.182983 
	C332.197021,186.714676 332.197021,191.932129 332.197021,197.280289 
	C357.208008,197.280289 381.891785,197.280289 406.909424,197.280289 
	C406.909424,194.700256 406.909424,192.549316 406.909515,189.445099 
z"/>
<path fill="#0A1115" opacity="1.000000" stroke="none" 
	d="
M627.985596,128.484360 
	C627.359985,112.123070 623.694092,96.548920 616.018494,81.997726 
	C614.942810,79.958412 614.060425,77.817108 613.407104,75.416321 
	C615.795166,75.028168 617.900574,75.155357 619.924255,74.807388 
	C622.006042,74.449432 624.068542,72.965591 626.032837,73.144539 
	C630.380127,73.540573 632.395386,71.258476 634.718079,68.098648 
	C638.870361,62.449886 643.673157,57.279312 648.601196,51.943138 
	C649.739014,51.909164 650.479736,51.840897 651.461792,51.750385 
	C648.745605,46.982525 646.216736,42.543476 643.687866,38.104416 
	C649.465515,33.458668 655.201599,28.635324 662.778320,27.311861 
	C664.993896,26.924854 667.406372,27.665646 669.929199,28.476933 
	C670.120667,42.696995 670.111572,56.329639 670.102478,69.962280 
	C667.611145,72.112976 664.882812,74.056328 662.737244,76.509422 
	C661.788147,77.594551 662.019531,79.712181 661.788269,82.009705 
	C658.316711,85.863770 654.713989,89.008965 651.268005,92.317345 
	C650.414978,93.136276 649.283508,94.938324 649.617310,95.517082 
	C652.079407,99.785378 648.681885,102.445343 646.977966,105.327698 
	C643.200012,111.718498 638.935486,117.819916 635.031372,124.139397 
	C634.299561,125.324059 634.321777,126.974564 633.580017,128.529053 
	C631.437805,128.593460 629.711731,128.538910 627.985596,128.484360 
M658.595825,68.616150 
	C659.612183,69.192650 660.628540,69.769150 661.644958,70.345650 
	C661.887756,69.999695 662.130615,69.653740 662.373413,69.307785 
	C659.442505,66.465660 659.693176,60.869507 653.374268,59.696083 
	C655.291809,63.019733 656.747742,65.543182 658.595825,68.616150 
z"/>
<path fill="#D2DBE5" opacity="1.000000" stroke="none" 
	d="
M471.895630,41.586853 
	C471.916016,47.826305 471.887787,53.649101 471.691162,59.466202 
	C471.497559,65.194473 469.335327,68.218697 463.808044,69.445282 
	C458.053070,70.722389 452.222900,70.938354 446.779022,66.928329 
	C441.049408,57.247181 443.809937,49.665134 454.010071,46.080578 
	C455.889801,45.420002 458.081970,45.179783 459.585358,44.032158 
	C461.601898,42.492844 463.832275,40.481812 464.505066,38.234467 
	C464.870270,37.014538 462.278351,33.529888 460.877991,33.446095 
	C457.901520,33.267979 453.229309,33.706940 452.132965,35.579548 
	C449.822052,39.526661 447.222046,38.340328 444.321716,38.343315 
	C443.904999,32.250324 445.507538,28.887074 450.731873,27.903625 
	C455.319122,27.040100 460.376434,26.965017 464.916290,27.958130 
	C471.776764,29.458881 471.945343,35.459000 471.895630,41.586853 
M454.251953,63.712975 
	C464.468018,64.878120 465.938171,62.896008 464.565125,49.403957 
	C461.399933,50.532455 458.236023,51.462612 455.238647,52.773525 
	C450.212494,54.971779 449.633728,58.955383 454.251953,63.712975 
z"/>
<path fill="#D2DBE5" opacity="1.000000" stroke="none" 
	d="
M417.330658,58.510509 
	C416.976654,66.191528 413.843933,69.556015 406.743774,70.034294 
	C404.100433,70.212341 401.390747,70.249825 398.778931,69.877327 
	C393.097565,69.067062 389.850403,65.772621 389.762543,60.378262 
	C389.583984,49.414627 389.709137,38.446049 389.709137,27.142727 
	C391.962372,27.142727 394.008118,27.142727 396.551300,27.142727 
	C396.551300,37.170631 396.455414,47.105824 396.588776,57.037933 
	C396.663605,62.610500 398.511475,64.152206 403.868073,64.066467 
	C408.367920,63.994450 410.536774,61.954750 410.489105,57.330799 
	C410.386444,47.368351 410.457581,37.404110 410.457581,27.123508 
	C412.781494,27.123508 414.840027,27.123508 417.330872,27.123508 
	C417.330872,37.509766 417.330872,47.787380 417.330658,58.510509 
z"/>
<path fill="#0D151B" opacity="1.000000" stroke="none" 
	d="
M405.917084,130.187439 
	C405.233093,130.413956 404.861206,130.301117 404.149261,129.925064 
	C403.545105,129.449982 403.297363,129.486740 403.065948,129.772125 
	C395.351135,129.336670 387.636292,128.901230 379.459351,128.386215 
	C379.930878,127.273842 380.682678,125.932541 381.827362,125.257721 
	C389.963013,120.461540 398.194336,115.828094 406.364319,111.089584 
	C412.234497,107.684944 418.033722,104.157349 423.924347,100.789085 
	C424.871246,100.247665 426.131042,100.253510 427.634827,100.007385 
	C426.911011,106.491211 425.804657,112.975113 424.679443,119.455719 
	C424.510040,120.431282 424.093933,121.386101 424.060760,122.359680 
	C423.834625,128.992645 423.856079,128.900864 417.014526,129.034149 
	C413.415527,129.104233 409.824066,129.564178 405.917084,130.187439 
z"/>
<path fill="#D6DFEA" opacity="1.000000" stroke="none" 
	d="
M348.323547,38.701401 
	C347.038696,38.747746 346.078674,38.653744 344.769043,38.670235 
	C343.173279,32.233524 346.194489,27.933994 353.054749,27.140289 
	C356.322876,26.762178 359.682251,27.172619 363.459045,27.234341 
	C369.387695,29.414516 371.533844,33.406048 371.255219,39.281361 
	C370.932678,46.083344 371.080902,52.914120 371.209564,59.728901 
	C371.306030,64.837730 368.851562,68.274620 364.107849,69.133423 
	C359.978149,69.881073 355.492767,69.987564 351.384888,69.211327 
	C345.711578,68.139282 343.964478,65.187180 343.823639,59.180004 
	C343.653931,51.940636 345.344910,49.064934 350.937561,47.074512 
	C353.749878,46.073612 356.525665,44.951653 359.381561,44.096798 
	C362.400696,43.193073 364.857208,41.582577 364.105621,38.234947 
	C363.682892,36.352020 361.727020,33.477024 360.357971,33.416977 
	C357.373932,33.286098 354.248962,34.467743 351.337982,35.538334 
	C350.221863,35.948826 349.532288,37.519199 348.323547,38.701401 
M360.816010,63.822857 
	C367.388733,60.405025 363.239014,54.524643 364.866302,49.158989 
	C360.890991,50.561958 357.833099,51.629818 354.783417,52.720467 
	C351.410858,53.926567 350.292450,56.486958 350.910492,59.786915 
	C351.947845,65.325447 356.370026,63.846298 360.816010,63.822857 
z"/>
<path fill="#D6DFEA" opacity="1.000000" stroke="none" 
	d="
M376.953003,18.464426 
	C376.987610,15.892236 377.103760,13.782319 377.302338,10.174943 
	C379.905792,11.334472 381.964661,12.251466 384.100037,13.585669 
	C384.176483,32.597466 384.176483,51.192055 384.176483,70.045670 
	C381.659058,70.045670 379.726898,70.045670 377.034515,70.045670 
	C377.034515,53.037174 377.034515,35.981937 376.953003,18.464426 
z"/>
<path fill="#D2DBE5" opacity="1.000000" stroke="none" 
	d="
M670.539917,69.985321 
	C670.111572,56.329639 670.120667,42.696995 670.274719,28.627766 
	C671.385254,28.262482 672.350952,28.333784 673.660156,28.276413 
	C681.947937,28.399395 689.908997,28.416191 697.830505,28.983946 
	C703.256836,29.372868 707.686279,31.834394 709.827881,37.709042 
	C711.576294,53.299458 697.656555,57.315025 682.802856,53.623409 
	C684.951477,52.797283 685.905334,52.171532 686.902039,52.093693 
	C690.541565,51.809444 694.256958,52.068710 697.830200,51.458099 
	C704.144470,50.379066 706.963379,47.010311 706.899048,41.496273 
	C706.835449,36.048378 703.800720,32.368240 697.500122,31.939575 
	C689.584534,31.401026 681.604492,31.809851 673.017517,31.809851 
	C673.017517,42.216595 673.018494,52.646347 673.016602,63.076099 
	C673.016235,64.906761 673.160706,66.759911 672.904053,68.554871 
	C672.823303,69.119659 671.650452,69.528275 670.539917,69.985321 
z"/>
<path fill="#D2DBE5" opacity="1.000000" stroke="none" 
	d="
M426.722473,29.644354 
	C431.545013,28.228277 436.071045,27.059166 441.008514,25.783775 
	C441.325989,30.897961 440.627411,33.287613 435.860840,33.124516 
	C431.908600,32.989288 430.104584,35.601921 430.154846,39.683376 
	C430.277344,49.636860 430.194794,59.592869 430.194794,69.866364 
	C427.874237,69.866364 425.835175,69.866364 423.401825,69.866364 
	C423.401825,58.293842 423.266205,46.861782 423.537384,35.439377 
	C423.581818,33.568218 425.417938,31.739599 426.722473,29.644354 
z"/>
<path fill="#C8D1DC" opacity="1.000000" stroke="none" 
	d="
M643.425964,37.896069 
	C646.216736,42.543476 648.745605,46.982525 651.461792,51.750385 
	C650.479736,51.840897 649.739014,51.909164 648.489380,51.615372 
	C644.092896,45.126686 640.205383,39.000061 635.975586,32.334000 
	C634.649475,34.354359 633.631592,35.806202 632.713989,37.318920 
	C626.685303,47.257839 620.751526,57.255775 614.583374,67.107109 
	C613.679077,68.551460 611.693970,69.319138 610.208984,70.399902 
	C610.088379,70.099503 609.964539,69.800217 609.792358,69.346085 
	C617.240540,56.828087 624.736877,44.467945 632.225586,32.103195 
	C635.457275,26.767313 636.622620,26.760778 639.857422,32.110600 
	C640.975586,33.959961 642.062744,35.828121 643.425964,37.896069 
z"/>
<path fill="#C8D1DC" opacity="1.000000" stroke="none" 
	d="
M557.850342,32.506233 
	C557.679810,45.341564 557.679810,57.736580 557.679810,70.131592 
	C556.785278,70.137360 555.890747,70.143127 554.996216,70.148895 
	C554.848328,57.364368 554.700439,44.579838 554.413940,31.378923 
	C554.909546,30.323326 555.538025,29.133574 556.178833,29.126865 
	C567.094971,29.012594 578.012695,29.044916 588.930054,29.044916 
	C589.027893,29.558649 589.125793,30.072382 589.223694,30.586115 
	C587.791870,30.918480 586.366882,31.503096 584.927124,31.542044 
	C575.960205,31.784611 566.989929,31.905010 557.850342,32.506233 
z"/>
<path fill="#C8D1DC" opacity="1.000000" stroke="none" 
	d="
M601.716248,61.526180 
	C601.566040,64.737877 601.290161,67.496689 601.014221,70.255501 
	C600.290344,70.249466 599.566406,70.243431 598.842468,70.237396 
	C598.842468,66.138695 598.842468,62.039993 598.761353,57.483612 
	C598.680176,47.638741 598.680176,38.251541 598.680176,28.358288 
	C601.314819,30.235273 601.299805,30.235353 601.374451,44.214928 
	C601.404419,49.834606 601.516113,55.453854 601.716248,61.526180 
z"/>
<path fill="#050D13" opacity="1.000000" stroke="none" 
	d="
M276.627991,105.070740 
	C276.777161,107.755836 276.550690,110.509766 276.160889,113.632164 
	C272.613922,110.947235 272.931335,108.000237 276.627991,105.070740 
z"/>
<path fill="#050D13" opacity="1.000000" stroke="none" 
	d="
M277.648621,96.060516 
	C278.000458,97.715912 277.998474,99.430710 277.993958,101.574219 
	C273.894897,100.499527 273.680420,98.536415 277.648621,96.060516 
z"/>
<path fill="#208EC3" opacity="1.000000" stroke="none" 
	d="
M925.191711,179.953247 
	C925.445129,179.657181 925.698486,179.361130 926.066895,178.792755 
	C939.138977,178.628601 952.095825,178.776855 965.053101,178.833740 
	C978.018555,178.890656 990.984436,178.856262 1004.408447,178.893753 
	C1005.343140,179.178116 1005.819580,179.430618 1006.540894,179.795776 
	C1006.785706,186.015137 1006.785706,192.121857 1006.785706,198.853546 
	C1013.420532,198.853546 1019.650879,198.853546 1026.129150,198.853546 
	C1026.129150,216.059082 1026.129150,232.628845 1026.129150,249.561508 
	C1019.426514,249.561508 1012.875793,249.561508 1005.712708,249.561508 
	C1005.712708,233.199356 1005.712708,216.971664 1005.712708,200.040756 
	C979.092285,200.040756 953.071716,200.040756 926.429810,199.890137 
	C925.472778,199.466019 925.137024,199.192551 924.917480,198.563812 
	C925.032410,197.472351 925.031067,196.736160 925.120605,195.540283 
	C925.204895,190.038132 925.198303,184.995682 925.191711,179.953247 
z"/>
<path fill="#1F8BBF" opacity="1.000000" stroke="none" 
	d="
M924.801270,198.919067 
	C925.137024,199.192551 925.472778,199.466019 925.985596,200.014343 
	C926.226257,215.219254 926.289856,230.149323 926.434998,245.541397 
	C926.543762,248.725647 925.746826,250.209747 922.471619,250.025864 
	C917.013489,249.719421 911.525635,249.942291 905.500061,249.942291 
	C905.386902,247.390945 905.286682,245.131989 905.188782,241.974701 
	C905.191101,227.149155 905.191101,213.221939 905.191101,198.919083 
	C912.212219,198.919083 918.506775,198.919083 924.801270,198.919067 
z"/>
<path fill="#0A1115" opacity="1.000000" stroke="none" 
	d="
M332.013794,201.395294 
	C356.281464,200.951035 380.562958,200.897003 404.844452,200.863464 
	C405.312317,200.862808 405.780548,201.103668 406.562683,201.317841 
	C406.562683,209.662872 406.562683,218.037979 406.562683,226.966263 
	C404.085175,226.966263 401.805115,226.966248 399.525055,226.966263 
	C382.058105,226.966385 364.591064,226.992279 347.124329,226.933289 
	C344.997681,226.926102 342.872528,226.462479 340.370911,226.010742 
	C338.407837,221.042740 336.817261,216.275482 335.234283,211.505707 
	C334.159851,208.268204 333.096130,205.027145 332.013794,201.395294 
z"/>
<path fill="#208EC3" opacity="1.000000" stroke="none" 
	d="
M744.354248,250.033783 
	C729.642090,250.074539 715.283630,250.022949 700.461548,250.046112 
	C675.223999,250.120880 650.450134,250.120880 624.785645,250.120880 
	C624.785645,241.400696 624.785645,233.164658 624.702271,224.466949 
	C624.618835,215.875153 624.618835,207.744995 624.618835,198.966492 
	C631.545532,198.966492 637.928162,198.966492 644.931824,198.966492 
	C644.931824,192.557007 644.931824,186.787384 645.106750,180.313477 
	C645.590881,179.376450 645.900024,179.143723 646.663086,178.885498 
	C650.444763,178.855881 653.772522,178.859894 657.100220,178.846313 
	C679.055908,178.756744 701.011658,178.663406 723.341553,178.670013 
	C724.470581,179.405212 725.863403,180.024673 725.880920,180.680756 
	C726.047119,186.925858 725.980103,193.177170 725.980103,200.053726 
	C715.873596,200.053726 706.435730,200.053726 696.534912,199.974960 
	C679.434631,199.896194 662.797302,199.896194 646.166260,199.896194 
	C646.166260,209.825195 646.166260,218.921280 646.163330,228.248566 
	C646.160461,228.479767 646.505920,228.787109 646.505920,228.787109 
	C646.505920,228.787109 646.964661,228.728622 647.429688,228.806091 
	C664.927124,228.840134 681.959656,228.796707 699.455566,228.829529 
	C715.161194,228.905792 730.403320,228.905792 746.170593,228.905792 
	C746.170593,235.412750 746.170593,241.207779 746.170593,247.002808 
	C745.683044,247.982346 745.195557,248.961884 744.354248,250.033783 
z"/>
<path fill="#070C10" opacity="1.000000" stroke="none" 
	d="
M924.917480,198.563812 
	C918.506775,198.919083 912.212219,198.919083 905.191101,198.919083 
	C905.191101,213.221939 905.191101,227.149155 905.102600,241.538132 
	C901.663025,242.620041 898.228271,242.957474 894.977966,243.918411 
	C887.914612,246.006683 881.363220,243.618668 874.291748,242.026474 
	C883.366333,233.249435 887.325256,222.489105 885.893005,209.323151 
	C879.194519,209.323151 872.489197,209.323151 865.807983,209.323151 
	C865.606445,209.671890 865.286865,209.962524 865.309631,210.223267 
	C866.383118,222.512680 858.110107,229.657028 845.375610,229.074554 
	C831.090698,228.421127 816.752747,228.955078 802.437988,228.914169 
	C790.789795,228.880890 784.963501,223.018326 784.947510,211.403030 
	C784.938171,204.578735 784.969299,197.754379 785.509277,190.465576 
	C794.477844,189.631149 802.918762,189.247925 811.360901,188.894211 
	C826.545105,188.257996 841.729797,187.175949 856.914673,187.170135 
	C867.755432,187.165985 878.664612,188.110779 889.419617,189.553970 
	C901.362854,191.156601 913.165710,193.806213 925.029663,195.999969 
	C925.031067,196.736160 925.032410,197.472351 924.917480,198.563812 
z"/>
<path fill="#080D10" opacity="1.000000" stroke="none" 
	d="
M746.502930,246.941605 
	C746.170593,241.207779 746.170593,235.412750 746.170593,228.905792 
	C730.403320,228.905792 715.161194,228.905792 699.456665,228.418655 
	C698.894165,222.522781 698.977722,217.102264 698.632324,211.709229 
	C698.382324,207.805191 697.563232,203.937576 696.997925,200.053726 
	C706.435730,200.053726 715.873596,200.053726 725.980103,200.053726 
	C725.980103,193.177170 726.047119,186.925858 725.880920,180.680756 
	C725.863403,180.024673 724.470581,179.405212 723.353088,178.200409 
	C720.660034,168.439072 718.329712,159.246078 716.462036,149.971008 
	C725.348877,149.877594 733.777466,149.706085 742.195007,149.937408 
	C745.354187,150.024231 746.344910,148.837601 746.165771,146.005981 
	C747.562195,148.876053 749.188171,151.659241 750.313171,154.632019 
	C754.106567,164.656067 757.675171,174.765137 761.456665,184.793808 
	C762.013733,186.271027 763.257324,187.489380 764.507996,188.915283 
	C764.971863,199.354187 765.110901,209.705307 765.217773,220.524139 
	C763.227783,222.452057 760.567688,223.506302 759.444641,225.449081 
	C756.152893,231.143341 753.570312,237.242859 750.486023,243.065033 
	C749.693237,244.561523 748.074585,245.620468 746.502930,246.941605 
z"/>
<path fill="#1F8CC1" opacity="1.000000" stroke="none" 
	d="
M534.577026,230.447678 
	C534.564087,206.382614 534.640625,182.778671 534.717407,159.174744 
	C534.726074,156.514618 534.736450,153.854507 534.971313,150.471954 
	C535.523071,149.471939 535.849548,149.194351 536.176025,148.916748 
	C542.122192,148.916748 548.068359,148.916748 554.470215,148.916748 
	C554.470215,141.935562 554.470215,135.663788 554.470215,129.013443 
	C571.783325,129.013443 588.630554,129.013443 605.632812,129.013443 
	C605.632812,135.892075 605.632812,142.498947 605.632812,149.739380 
	C589.068298,149.739380 572.706177,149.739380 555.796692,149.739380 
	C555.796692,175.272659 555.796692,200.176010 555.887451,225.540909 
	C555.978149,233.785355 555.978149,241.568253 555.978149,249.979416 
	C553.099915,249.979416 550.989563,249.979416 548.440491,250.049591 
	C543.868774,250.119781 539.735779,250.119781 534.666504,250.119781 
	C534.666504,243.379059 534.666504,237.143936 534.577026,230.447678 
z"/>
<path fill="#208DC2" opacity="1.000000" stroke="none" 
	d="
M746.098755,145.541626 
	C746.344910,148.837601 745.354187,150.024231 742.195007,149.937408 
	C733.777466,149.706085 725.348877,149.877594 715.999146,149.891052 
	C692.165222,149.893158 669.256775,149.893158 646.209229,149.893158 
	C646.209229,160.005508 646.209229,169.458252 646.209229,178.910995 
	C645.900024,179.143723 645.590881,179.376450 645.117920,179.851013 
	C638.415344,179.921463 631.876404,179.750107 624.998108,179.295685 
	C624.700317,173.981430 624.741943,168.950195 624.779541,163.046204 
	C624.707703,160.773773 624.639832,159.374084 624.572021,157.974411 
	C624.656738,149.539673 624.643005,141.101639 624.926086,132.673569 
	C624.971619,131.316360 626.339783,130.003571 627.541077,128.577301 
	C629.711731,128.538910 631.437805,128.593460 634.036865,128.643280 
	C664.801514,128.666962 694.693298,128.709793 724.585083,128.709244 
	C729.391052,128.709152 734.196960,128.515396 739.002930,128.411179 
	C741.107971,128.609619 743.212952,128.808075 746.031677,129.073792 
	C746.031677,134.390533 746.031677,139.733887 746.098755,145.541626 
z"/>
<path fill="#070C10" opacity="1.000000" stroke="none" 
	d="
M624.250916,158.105576 
	C624.639832,159.374084 624.707703,160.773773 624.691406,162.587479 
	C624.239929,162.994568 623.872559,162.987625 623.228943,162.968506 
	C623.278381,161.383133 623.604065,159.809937 624.250916,158.105576 
z"/>
<path fill="#080D10" opacity="1.000000" stroke="none" 
	d="
M738.978516,128.076569 
	C734.196960,128.515396 729.391052,128.709152 724.585083,128.709244 
	C694.693298,128.709793 664.801514,128.666962 634.452881,128.524307 
	C634.321777,126.974564 634.299561,125.324059 635.031372,124.139397 
	C638.935486,117.819916 643.200012,111.718498 646.977966,105.327698 
	C648.681885,102.445343 652.079407,99.785378 649.617310,95.517082 
	C649.283508,94.938324 650.414978,93.136276 651.268005,92.317345 
	C654.713989,89.008965 658.316711,85.863770 661.930786,82.327942 
	C664.979065,80.857262 668.323669,80.235039 670.849609,78.452637 
	C674.449219,75.912689 677.810791,74.891899 681.214722,77.938988 
	C683.820312,80.271416 686.042358,80.035896 688.879150,78.620033 
	C694.019470,76.054474 697.231323,77.612160 698.849976,83.258667 
	C699.673340,86.130928 700.349548,89.049683 700.979980,91.971657 
	C701.524780,94.496780 702.744690,94.861893 705.295471,94.442177 
	C710.271179,93.623489 715.351990,93.223999 720.394348,93.174797 
	C721.757263,93.161484 723.767883,94.727699 724.411499,96.078560 
	C729.406677,106.562675 734.139893,117.171616 738.978516,128.076569 
z"/>
<path fill="#090E12" opacity="1.000000" stroke="none" 
	d="
M925.120605,195.540283 
	C913.165710,193.806213 901.362854,191.156601 889.419617,189.553970 
	C878.664612,188.110779 867.755432,187.165985 856.914673,187.170135 
	C841.729797,187.175949 826.545105,188.257996 811.360901,188.894211 
	C802.918762,189.247925 794.477844,189.631149 785.580322,190.001801 
	C785.072876,181.025269 784.855835,172.044983 785.019958,163.071686 
	C785.163208,155.241608 791.056702,148.881042 798.846436,148.755768 
	C816.304871,148.475021 833.773865,148.483200 851.232483,148.759933 
	C859.021973,148.883408 864.693665,155.172592 865.081604,163.051620 
	C865.179077,165.030701 865.096191,167.018631 865.096191,169.426468 
	C872.148438,169.426468 878.836060,169.426468 886.293823,169.426468 
	C886.039246,164.885849 885.792053,160.477463 885.477051,155.614380 
	C891.635132,155.106262 897.861023,155.052826 904.557495,154.999130 
	C905.028076,163.108948 905.028076,171.219025 905.028076,179.885651 
	C911.988892,179.885651 918.108887,179.885651 924.710327,179.919434 
	C925.198303,184.995682 925.204895,190.038132 925.120605,195.540283 
z"/>
<path fill="#05090C" opacity="1.000000" stroke="none" 
	d="
M76.003098,181.089294 
	C87.291008,181.023087 98.580070,181.033401 109.866425,180.863937 
	C117.477684,180.749664 123.645294,176.663712 125.893127,170.338821 
	C128.307602,163.545013 127.076637,157.060104 121.494652,152.754898 
	C118.098648,150.135651 113.175224,148.624588 108.815086,148.308105 
	C99.563568,147.636566 90.231720,148.071823 80.530022,147.607788 
	C81.420227,142.157806 82.713219,137.153336 84.006210,132.148865 
	C93.494751,132.103470 102.989044,131.827118 112.470543,132.063644 
	C129.095459,132.478409 142.722488,146.640335 143.109528,163.549286 
	C143.498825,180.556381 130.318253,196.087555 113.879570,196.908157 
	C100.591400,197.571518 87.246880,197.105774 73.524574,196.677032 
	C74.082230,191.171875 75.042664,186.130585 76.003098,181.089294 
z"/>
<path fill="#070C10" opacity="1.000000" stroke="none" 
	d="
M92.999916,151.645996 
	C98.988876,151.645874 104.479935,151.550385 109.966393,151.668655 
	C118.157578,151.845200 123.553955,157.009674 123.535439,164.467361 
	C123.517220,171.805405 117.985901,177.530197 110.142044,177.735306 
	C100.833649,177.978729 91.514259,177.807098 82.199638,177.806366 
	C72.385979,177.805603 62.570511,177.685623 52.759682,177.848892 
	C49.509689,177.903000 48.330173,176.857620 48.443127,173.577667 
	C48.643372,167.762894 48.671883,161.929276 48.436264,156.117172 
	C48.291393,152.543625 49.689083,151.587799 53.079720,151.623596 
	C66.218407,151.762329 79.359657,151.659271 92.999916,151.645996 
z"/>
<path fill="#02070B" opacity="1.000000" stroke="none" 
	d="
M45.026402,214.007919 
	C45.026455,224.994125 45.026455,235.481201 45.026455,246.385956 
	C39.721210,246.385956 34.678051,246.385956 29.260662,246.385956 
	C29.260662,231.323303 29.260662,216.275543 29.260662,200.844849 
	C34.307476,200.844849 39.215046,200.844849 45.026348,200.844849 
	C45.026348,205.034500 45.026348,209.271637 45.026402,214.007919 
z"/>
<path fill="#05090C" opacity="1.000000" stroke="none" 
	d="
M45.233486,148.127563 
	C45.233486,157.755005 45.233486,167.382462 45.233486,177.408936 
	C39.704472,177.408936 34.660686,177.408936 29.252903,177.408936 
	C29.252903,162.371490 29.252903,147.512711 29.252903,132.016937 
	C33.553104,132.016937 37.811974,132.016937 42.533863,132.539490 
	C43.818417,138.072601 41.020397,143.620514 45.233486,148.127563 
z"/>
<path fill="#080D10" opacity="1.000000" stroke="none" 
	d="
M45.686092,148.124268 
	C41.020397,143.620514 43.818417,138.072601 42.995106,132.608047 
	C56.354549,132.105820 69.715767,132.057602 83.541595,132.079117 
	C82.713219,137.153336 81.420227,142.157806 80.066368,147.536499 
	C68.716568,147.980804 57.427631,148.050903 45.686092,148.124268 
z"/>
<path fill="#070C10" opacity="1.000000" stroke="none" 
	d="
M75.539574,181.012283 
	C75.042664,186.130585 74.082230,191.171875 73.061409,196.598724 
	C65.058006,196.984283 57.114994,196.984283 48.839428,196.984283 
	C48.839428,191.646759 48.839428,186.725143 48.839428,180.935287 
	C57.590534,180.935287 66.333298,180.935287 75.539574,181.012283 
z"/>
<path fill="#02070B" opacity="1.000000" stroke="none" 
	d="
M228.990707,226.819916 
	C220.343781,226.867599 211.693588,227.080978 203.050995,226.909927 
	C196.287155,226.776062 190.237320,221.330353 190.155838,214.697159 
	C189.900833,193.936462 190.062149,173.170670 190.062149,151.686813 
	C202.630386,151.686813 214.857346,151.686813 227.542816,152.185913 
	C227.987320,155.093155 227.983521,157.501373 227.957031,159.909363 
	C227.911026,164.090698 228.140808,168.300598 227.730331,172.446564 
	C227.080093,179.014008 222.658188,185.490005 226.682388,192.120331 
	C229.129105,196.151596 229.227921,200.024017 228.463379,204.440399 
	C227.712799,208.776184 227.466614,213.249680 227.518219,217.656662 
	C227.554031,220.716400 228.468689,223.765869 228.990707,226.819916 
z"/>
<path fill="#030A0F" opacity="1.000000" stroke="none" 
	d="
M267.008453,243.022507 
	C264.065430,244.056473 261.135834,245.940399 258.177216,245.987152 
	C238.213684,246.302689 218.188721,247.165024 198.293594,245.989426 
	C181.960358,245.024292 170.531509,231.201523 170.345657,214.844650 
	C170.122299,195.187393 170.349976,175.525330 170.233139,155.866241 
	C170.214005,152.648407 171.148132,151.338913 174.481583,151.533691 
	C178.407043,151.763062 182.356140,151.587463 186.835281,151.587463 
	C186.835281,154.098434 186.835785,155.889374 186.835220,157.680298 
	C186.829544,175.673981 186.786667,193.667770 186.830933,211.661331 
	C186.860458,223.660355 193.386688,230.152908 205.356232,230.175583 
	C220.517532,230.204300 235.688828,230.482941 250.833862,229.985596 
	C255.008301,229.848511 259.104553,227.330963 263.620697,226.136246 
	C265.005951,231.918716 266.007202,237.470612 267.008453,243.022507 
z"/>
<path fill="#040D12" opacity="1.000000" stroke="none" 
	d="
M229.455994,226.885132 
	C228.468689,223.765869 227.554031,220.716400 227.518219,217.656662 
	C227.466614,213.249680 227.712799,208.776184 228.463379,204.440399 
	C229.227921,200.024017 229.129105,196.151596 226.682388,192.120331 
	C222.658188,185.490005 227.080093,179.014008 227.730331,172.446564 
	C228.140808,168.300598 227.911026,164.090698 227.957031,159.909363 
	C227.983521,157.501373 227.987320,155.093155 228.005676,152.273285 
	C236.144089,151.793442 244.284760,151.494186 252.410248,151.726227 
	C259.653870,151.933105 265.121185,157.185638 265.233490,164.409683 
	C265.491669,181.019058 265.495239,197.638596 265.212616,214.247360 
	C265.087280,221.612579 259.236053,226.836624 251.852203,226.952026 
	C244.543686,227.066254 237.231720,226.959946 229.455994,226.885132 
z"/>
<path fill="#040D12" opacity="1.000000" stroke="none" 
	d="
M267.351685,242.965271 
	C266.007202,237.470612 265.005951,231.918716 263.929260,225.946869 
	C267.508942,221.309692 268.903870,216.442307 268.834137,210.848160 
	C268.654144,196.404770 268.648315,181.956070 268.826782,167.512650 
	C268.916077,160.285782 266.451843,154.589890 260.218292,149.792419 
	C260.330780,143.771057 260.661591,138.466370 260.992371,133.161667 
	C274.388977,136.517227 284.665924,148.568665 284.912567,162.225403 
	C285.237061,180.193832 285.332031,198.180954 284.879791,216.143784 
	C284.575958,228.212509 278.399475,237.179642 267.351685,242.965271 
z"/>
<path fill="#02070B" opacity="1.000000" stroke="none" 
	d="
M260.588409,133.020752 
	C260.661591,138.466370 260.330780,143.771057 260.000000,149.537292 
	C255.929932,149.369965 251.865585,148.245331 247.788818,148.198425 
	C230.496170,147.999466 213.199844,148.120499 195.904861,148.124481 
	C194.122009,148.124893 192.339172,148.124527 190.293121,148.124527 
	C190.293121,142.680725 190.293121,137.747330 190.293121,132.371597 
	C191.421661,132.243286 192.671158,131.978760 193.920959,131.977432 
	C213.544083,131.956375 233.167358,131.937531 252.790237,132.014236 
	C255.256073,132.023865 257.719757,132.578003 260.588409,133.020752 
z"/>
<path fill="#0B141A" opacity="1.000000" stroke="none" 
	d="
M404.969482,177.252518 
	C380.955109,177.593872 356.856567,177.593872 332.315369,177.593872 
	C332.315369,169.135330 332.315369,160.781784 332.315369,152.086594 
	C333.410248,151.938110 334.510681,151.660172 335.611450,151.658752 
	C354.745880,151.634064 373.880402,151.623672 393.014709,151.677216 
	C394.819550,151.682266 396.623108,152.136093 398.739441,152.670319 
	C399.508362,156.566742 399.621277,160.261581 400.508118,163.760239 
	C401.640350,168.226730 403.397491,172.534805 404.969482,177.252518 
z"/>
<path fill="#1F8BBF" opacity="1.000000" stroke="none" 
	d="
M536.046387,148.468994 
	C535.849548,149.194351 535.523071,149.471939 535.026917,150.024918 
	C520.385498,150.151917 505.913757,150.000900 491.441956,149.858093 
	C489.316284,149.837112 487.190216,149.855164 484.740143,149.855164 
	C484.740143,142.647949 484.740143,135.924927 484.740143,128.909378 
	C501.726624,128.909378 518.453491,128.909378 535.916748,128.909378 
	C535.916748,135.468933 535.916748,141.745087 536.046387,148.468994 
z"/>
<path fill="#0B141A" opacity="1.000000" stroke="none" 
	d="
M610.170166,70.766678 
	C611.693970,69.319138 613.679077,68.551460 614.583374,67.107109 
	C620.751526,57.255775 626.685303,47.257839 632.713989,37.318920 
	C633.631592,35.806202 634.649475,34.354359 635.975586,32.334000 
	C640.205383,39.000061 644.092896,45.126686 648.092163,51.581081 
	C643.673157,57.279312 638.870361,62.449886 634.718079,68.098648 
	C632.395386,71.258476 630.380127,73.540573 626.032837,73.144539 
	C624.068542,72.965591 622.006042,74.449432 619.924255,74.807388 
	C617.900574,75.155357 615.795166,75.028168 613.354370,75.058853 
	C612.032471,73.716530 611.081909,72.424988 610.170166,70.766678 
z"/>
<path fill="#C8D1DC" opacity="1.000000" stroke="none" 
	d="
M513.981079,44.324760 
	C515.875488,45.857784 517.769348,46.990299 519.982483,48.313705 
	C518.268433,48.521023 516.343384,48.753853 514.210571,49.011810 
	C514.055054,50.900345 513.897949,52.807304 513.740906,54.714264 
	C513.377991,54.754501 513.015076,54.794743 512.652161,54.834984 
	C512.461365,53.059814 512.270508,51.284645 512.044250,49.180683 
	C510.201569,48.879967 508.237640,48.559467 506.273712,48.238964 
	C506.267639,47.933968 506.261566,47.628967 506.255493,47.323971 
	C508.051453,47.132904 509.847412,46.941837 511.960510,46.717033 
	C512.176514,44.845837 512.401855,42.893925 512.627197,40.942009 
	C512.954224,40.939758 513.281311,40.937504 513.608337,40.935253 
	C513.732422,41.931587 513.856506,42.927921 513.981079,44.324760 
z"/>
<path fill="#C8D1DC" opacity="1.000000" stroke="none" 
	d="
M575.835205,48.887291 
	C577.771973,48.978718 579.238159,49.068909 580.704285,49.159096 
	C580.859741,49.660595 581.015198,50.162090 581.170654,50.663589 
	C579.755554,51.072750 578.272400,51.978607 576.938416,51.795818 
	C573.271545,51.293369 568.914795,53.631977 566.062561,48.886055 
	C569.163269,48.886055 572.263916,48.886055 575.835205,48.887291 
z"/>
<path fill="#0B141A" opacity="1.000000" stroke="none" 
	d="
M414.931152,197.783081 
	C409.749329,198.779068 409.721100,195.467010 410.234192,191.380463 
	C411.844147,193.111984 413.368561,195.270828 414.931152,197.783081 
z"/>
<path fill="#0B141A" opacity="1.000000" stroke="none" 
	d="
M345.992981,230.410706 
	C364.951721,230.331268 383.910461,230.250992 402.869202,230.173584 
	C405.013123,230.164841 407.157135,230.172379 409.840149,230.172379 
	C409.840149,220.454208 409.840149,211.054565 409.840149,201.701965 
	C416.098175,201.251526 422.684937,205.074371 424.765106,211.485718 
	C427.662018,220.414368 427.926483,229.522263 421.868408,237.629929 
	C417.013611,244.127228 410.250702,246.807297 402.321320,246.813690 
	C386.850677,246.826172 371.379944,246.784317 355.432404,246.341766 
	C351.968018,240.749283 348.980499,235.579987 345.992981,230.410706 
z"/>
<path fill="#0B141A" opacity="1.000000" stroke="none" 
	d="
M406.909485,189.921738 
	C406.909424,192.549316 406.909424,194.700256 406.909424,197.280289 
	C381.891785,197.280289 357.208008,197.280289 332.197021,197.280289 
	C332.197021,191.932129 332.197021,186.714676 332.197021,181.182983 
	C356.980957,181.182983 381.546387,181.182983 406.909515,181.182983 
	C406.909515,183.934357 406.909515,186.689728 406.909485,189.921738 
z"/>
<path fill="#0B141A" opacity="1.000000" stroke="none" 
	d="
M362.003448,147.916748 
	C351.208679,147.916748 340.413879,147.916748 328.926636,147.916748 
	C328.926636,157.879517 328.926636,167.263687 328.926636,176.565842 
	C321.465302,177.238037 314.733582,172.165634 312.916046,164.516235 
	C308.082947,144.175690 321.282288,130.670578 337.603973,131.849472 
	C346.054413,132.459839 354.583008,131.988052 363.539246,132.502686 
	C363.335938,137.972366 362.669678,142.944565 362.003448,147.916748 
z"/>
<path fill="#050D13" opacity="1.000000" stroke="none" 
	d="
M345.573669,230.335632 
	C348.980499,235.579987 351.968018,240.749283 354.970642,246.255966 
	C341.976746,247.485596 329.731110,246.274399 320.416321,235.430573 
	C315.443878,229.641846 312.667480,223.167221 312.211792,214.832230 
	C317.097107,214.832230 321.849457,214.708908 326.583527,214.947739 
	C327.419739,214.989929 328.571503,216.411255 328.913300,217.420624 
	C331.839355,226.061234 336.229858,229.603058 345.573669,230.335632 
z"/>
<path fill="#010204" opacity="1.000000" stroke="none" 
	d="
M396.023163,132.178787 
	C412.552338,132.839569 426.501495,147.320267 425.995270,163.636353 
	C420.939880,163.636353 415.860077,163.636353 410.353302,163.636353 
	C409.013824,156.350006 405.238007,150.733810 397.193359,148.018402 
	C396.636749,142.303589 396.329956,137.241196 396.023163,132.178787 
z"/>
<path fill="#0A1115" opacity="1.000000" stroke="none" 
	d="
M395.557770,132.106659 
	C396.329956,137.241196 396.636749,142.303589 396.916077,147.809967 
	C385.569519,148.188522 374.250458,148.123108 362.467407,147.987228 
	C362.669678,142.944565 363.335938,137.972366 364.003662,132.572388 
	C374.367554,132.107880 384.729980,132.071198 395.557770,132.106659 
z"/>
<path fill="#010204" opacity="1.000000" stroke="none" 
	d="
M403.286194,129.849976 
	C403.297363,129.486740 403.545105,129.449982 403.891235,129.786835 
	C403.973328,129.911835 403.506439,129.927841 403.286194,129.849976 
z"/>
<path fill="#C8D1DC" opacity="1.000000" stroke="none" 
	d="
M658.399719,68.341393 
	C656.747742,65.543182 655.291809,63.019733 653.374268,59.696083 
	C659.693176,60.869507 659.442505,66.465660 662.373413,69.307785 
	C662.130615,69.653740 661.887756,69.999695 661.644958,70.345650 
	C660.628540,69.769150 659.612183,69.192650 658.399719,68.341393 
z"/>
<path fill="#080D10" opacity="1.000000" stroke="none" 
	d="
M453.886841,63.516754 
	C449.633728,58.955383 450.212494,54.971779 455.238647,52.773525 
	C458.236023,51.462612 461.399933,50.532455 464.565125,49.403957 
	C465.938171,62.896008 464.468018,64.878120 453.886841,63.516754 
z"/>
<path fill="#10171C" opacity="1.000000" stroke="none" 
	d="
M360.401794,63.896008 
	C356.370026,63.846298 351.947845,65.325447 350.910492,59.786915 
	C350.292450,56.486958 351.410858,53.926567 354.783417,52.720467 
	C357.833099,51.629818 360.890991,50.561958 364.866302,49.158989 
	C363.239014,54.524643 367.388733,60.405025 360.401794,63.896008 
z"/>
<path fill="#060B0E" opacity="1.000000" stroke="none" 
	d="
M646.663086,178.885498 
	C646.209229,169.458252 646.209229,160.005508 646.209229,149.893158 
	C669.256775,149.893158 692.165222,149.893158 715.536499,149.973114 
	C718.329712,159.246078 720.660034,168.439072 722.978882,178.101685 
	C701.011658,178.663406 679.055908,178.756744 657.100220,178.846313 
	C653.772522,178.859894 650.444763,178.855881 646.663086,178.885498 
z"/>
<path fill="#05090C" opacity="1.000000" stroke="none" 
	d="
M696.534912,199.974960 
	C697.563232,203.937576 698.382324,207.805191 698.632324,211.709229 
	C698.977722,217.102264 698.894165,222.522781 698.993225,228.342392 
	C681.959656,228.796707 664.927124,228.840134 647.323975,228.659042 
	C646.587219,228.253815 646.391541,228.114761 646.166260,228.017365 
	C646.166260,218.921280 646.166260,209.825195 646.166260,199.896194 
	C662.797302,199.896194 679.434631,199.896194 696.534912,199.974960 
z"/>
<path fill="#080D10" opacity="1.000000" stroke="none" 
	d="
M646.163330,228.248566 
	C646.391541,228.114761 646.587219,228.253815 646.859009,228.581573 
	C646.964661,228.728622 646.505920,228.787109 646.505920,228.787109 
	C646.505920,228.787109 646.160461,228.479767 646.163330,228.248566 
z"/>
</svg>